<?xml version="1.0" encoding="UTF-8"?>
<!DOCTYPE svg PUBLIC "-//W3C//DTD SVG 1.1//EN" "http://www.w3.org/Graphics/SVG/1.1/DTD/svg11.dtd">
<!-- Creator: CorelDRAW 2020 (64-Bit) -->
<svg xmlns="http://www.w3.org/2000/svg" xml:space="preserve" width="150.764mm" height="25.982mm" version="1.1" style="shape-rendering:geometricPrecision; text-rendering:geometricPrecision; image-rendering:optimizeQuality; fill-rule:evenodd; clip-rule:evenodd"
viewBox="0 0 37047.38 6384.57"
 xmlns:xlink="http://www.w3.org/1999/xlink"
 xmlns:xodm="http://www.corel.com/coreldraw/odm/2003">
 <defs>
  <style type="text/css">
   <![CDATA[
    .fil0 {fill:white}
    .fil1 {fill:white;fill-rule:nonzero}
   ]]>
  </style>
 </defs>
 <g id="Layer_x0020_1">
  <metadata id="CorelCorpID_0Corel-Layer"/>
  <g id="_2203818237632">
   <path class="fil0" d="M4961.2 4424.03c-223.1,419.27 -380.54,990.51 -714.83,1364.84 -255.51,286.08 -614.77,367.59 -980.81,239.27 -357.71,-125.42 -510.82,-478.56 -596.66,-642 -44.82,-85.32 -241.21,-402.87 -426.81,-779.48 -317.41,-644.06 -798.75,-1502.67 -1660.55,-576.21 19.24,-56.27 830.54,-1696.23 860.77,-1743.41 332.25,-518.81 1113.06,-518.64 1463.69,-43.17 78.44,105.39 683.74,1270.45 727.21,1337.78 181.52,-303.6 462.07,-1172.58 860.08,-1426.51 207.72,-110.78 360.17,-152.21 526.75,-135.27 165.55,16.78 364.59,74.33 481.48,172.9 144.1,118.17 226.61,204.94 319.87,385.7 499.35,1052.29 1370.56,3010.98 1885.24,3413.24 -150.66,73.5 -625.06,297.01 -894.9,321.86 -584.74,53.79 -888.17,-127.26 -1123.82,-555.84 -240.82,-438.11 -483.35,-898.17 -726.72,-1333.68z"/>
   <circle class="fil0" transform="matrix(0.348469 0.140265 -0.140265 0.348469 899.015 5414.58)" r="2392.6"/>
   <circle class="fil0" transform="matrix(0.28218 0.113582 -0.113582 0.28218 5103.96 860.625)" r="2392.6"/>
   <circle class="fil0" transform="matrix(0.28218 0.113582 -0.113582 0.28218 2297.18 727.985)" r="2392.6"/>
  </g>
  <path class="fil1" d="M13229.48 2789.9l0 3523.6 -619.9 0 0 -2474.14c-60.72,163.14 -134.12,329.89 -220.22,500.28l-734.98 1462.71 -525.64 0 -724.12 -1462.71c-115.1,-224.77 -193.93,-395.16 -236.54,-511.14l0 2485 -619.88 0 0 -3523.6 690.58 0 788.45 1549.75c182.18,366.11 305.42,647.06 369.77,842.83 67.97,-213.88 191.23,-494.83 369.75,-842.83l793.91 -1549.75 668.83 0zm2642.07 2071.75c0,112.37 -5.43,233.81 -16.32,364.32l-1620.42 0c14.52,239.27 82.49,415.06 203.93,527.46 121.44,112.37 272.79,168.55 454.04,168.55 130.51,0 248.31,-17.2 353.43,-51.65 105.15,-34.43 224.77,-89.72 358.89,-165.84l206.63 380.64c-130.51,90.63 -276.42,163.14 -437.72,217.5 -161.32,54.38 -336.23,81.58 -524.73,81.58 -232.02,0 -437.74,-41.7 -617.18,-125.08 -179.46,-83.38 -321.73,-217.5 -426.86,-402.38 -105.12,-184.89 -157.69,-424.13 -157.69,-717.78 0,-253.74 45.31,-479.42 135.94,-676.99 90.63,-197.57 224.74,-352.52 402.38,-464.9 177.64,-112.4 391.5,-168.57 641.65,-168.57 224.74,0 415.06,44.4 570.93,133.21 155.89,88.83 273.69,212.07 353.46,369.77 79.76,157.69 119.62,334.41 119.62,530.16zm-1050.37 -609.02c-155.87,0 -280.94,48.95 -372.48,146.82 -92.42,97.87 -154.96,237.42 -186.68,418.7l1022.26 0 0 -16.32c0,-188.5 -41.68,-327.17 -125.05,-416 -83.38,-88.81 -195.75,-133.21 -338.05,-133.21zm3545.64 -1740.04l0 3800.91 -516.57 0 -38.06 -179.43c-257.38,166.75 -509.33,250.13 -755.84,250.13 -326.26,0 -575.48,-106.03 -747.66,-318.1 -172.21,-212.09 -258.29,-512.05 -258.29,-899.94 0,-293.65 57.08,-541.05 171.27,-742.25 114.19,-201.18 265.54,-350.71 454.04,-448.61 188.52,-97.87 396.95,-146.8 625.33,-146.8 152.25,0 311.76,23.57 478.51,70.67l0 -1326.77 587.27 -59.81zm-1707.41 2648.14c0,503.87 183.95,755.82 551.91,755.82 182.16,0 371.57,-57.99 568.23,-174l0 -1408.35c-127.78,-43.49 -263.72,-65.24 -409.63,-65.24 -138.67,0 -261.9,32.63 -368.84,97.87 -107.85,65.24 -191.23,164.93 -251.95,299.08 -59.81,134.12 -89.72,299.05 -89.72,494.83zm2517.02 -1691.12c-68.88,0 -133.23,-17.23 -193.05,-51.65 -59.81,-34.45 -107.85,-81.58 -144.1,-141.39 -36.25,-59.81 -54.38,-124.14 -54.38,-193.02 0,-68.88 18.13,-133.23 54.38,-193.05 36.25,-59.81 84.29,-107.85 144.1,-144.1 59.81,-36.25 124.17,-54.38 193.05,-54.38 72.49,0 139.55,18.13 201.18,54.38 61.63,36.25 110.58,84.29 146.82,144.1 36.25,59.81 54.38,124.17 54.38,193.05 0,68.88 -18.13,133.21 -54.38,193.02 -36.25,59.81 -85.19,106.94 -146.82,141.39 -61.63,34.43 -128.69,51.65 -201.18,51.65zm-282.76 2843.89l0 -2403.44 587.27 -59.81 0 2463.25 -587.27 0zm2141.81 -2485c297.26,0 520.19,63.42 668.83,190.32 148.62,126.87 222.93,329.87 222.93,609.02l0 1685.66 -511.12 0 -43.52 -201.2c-134.12,97.9 -270.97,167.66 -410.54,209.36 -139.55,41.68 -283.65,62.54 -432.29,62.54 -145.01,0 -272.79,-27.2 -383.34,-81.58 -110.58,-54.36 -196.68,-131.39 -258.29,-231.08 -61.63,-99.69 -92.44,-214.79 -92.44,-345.3 0,-195.75 68.88,-359.77 206.63,-492.1 137.73,-132.33 322.62,-231.11 554.64,-296.35 231.99,-65.27 493.01,-101.51 783.02,-108.76l0 -92.44c0,-155.87 -29.02,-268.24 -87.01,-337.12 -57.99,-68.88 -159.5,-103.33 -304.51,-103.33 -250.13,0 -518.39,92.44 -804.77,277.33l-239.27 -375.21c174.03,-123.26 353.46,-215.7 538.35,-277.31 184.86,-61.63 382.43,-92.44 592.7,-92.44zm-630.77 1832.48c0,86.99 26.27,153.16 79.74,198.48 52.56,45.31 129.6,67.97 232.02,67.97 203.91,0 412.34,-61.63 623.52,-184.89l0 -522c-291.83,14.5 -520.21,58.9 -686.05,133.21 -165.84,74.31 -249.22,176.73 -249.22,307.24zm7063.12 -2889.74l0 3542.25 -623.2 0 0 -2487.23c-61.04,164 -134.83,331.64 -221.38,502.91l-738.89 1470.47 -528.42 0 -727.95 -1470.47c-115.71,-225.95 -194.96,-397.22 -237.79,-513.85l0 2498.17 -623.17 0 0 -3542.25 694.24 0 792.63 1557.93c183.14,368.08 307.04,650.5 371.74,847.3 68.31,-215.01 192.23,-497.46 371.72,-847.3l798.08 -1557.93 672.39 0zm874.01 683.3c-69.25,0 -133.92,-17.3 -194.05,-51.92 -60.13,-34.62 -108.42,-82 -144.86,-142.13 -36.44,-60.13 -54.67,-124.83 -54.67,-194.05 0,-69.25 18.23,-133.95 54.67,-194.08 36.44,-60.13 84.73,-108.42 144.86,-144.86 60.13,-36.44 124.81,-54.65 194.05,-54.65 72.88,0 140.31,18.21 202.26,54.65 61.95,36.44 111.14,84.73 147.59,144.86 36.44,60.13 54.67,124.83 54.67,194.08 0,69.22 -18.23,133.92 -54.67,194.05 -36.44,60.13 -85.64,107.51 -147.59,142.13 -61.95,34.62 -129.38,51.92 -202.26,51.92zm-284.26 2858.95l0 -2416.17 590.39 -60.13 0 2476.3 -590.39 0zm1939.97 71.07c-222.31,0 -421.85,-27.33 -598.57,-82 -176.75,-54.65 -341.66,-136.65 -494.73,-245.98l252.37 -399.07c259.66,185.87 535.72,278.78 828.18,278.78 143.04,0 251.46,-23.69 327.07,-71.04 74.7,-47.38 112.05,-114.81 112.05,-202.26 0,-51.04 -13.66,-95.66 -40.99,-133.95 -27.33,-38.26 -78.36,-75.61 -151.25,-112.05 -72.88,-36.44 -177.66,-72.88 -312.5,-109.33l-164.91 -43.74c-259.64,-69.25 -448.24,-160.34 -564.86,-273.33 -117.53,-112.96 -175.84,-262.39 -175.84,-448.24 0,-142.13 40.1,-267.85 120.28,-377.2 80.16,-109.33 192.23,-194.96 336.18,-256.91 143.95,-61.95 307.02,-92.94 489.25,-92.94 346.18,0 668.71,87.46 967.54,262.39l-231.4 393.59c-153.97,-80.18 -285.17,-134.83 -391.77,-164 -106.6,-29.14 -220.47,-43.72 -341.64,-43.72 -113.9,0 -202.26,21.85 -264.21,65.59 -62.88,43.74 -93.84,102.05 -93.84,174.94 0,43.72 10.93,81.09 32.8,112.05 21.85,30.99 61.04,58.31 115.69,82 55.58,23.69 133.92,48.29 236.88,73.79l176.75 43.74c297.01,80.16 512.94,183.12 646.86,308.86 133.92,125.72 201.35,286.99 201.35,483.77 0,149.43 -38.26,282.44 -114.81,399.04 -76.52,116.62 -191.33,208.65 -344.39,276.05 -153.04,67.43 -338.91,101.14 -557.56,101.14zm2852.86 -164c-211.38,109.33 -430.03,164 -655.98,164 -142.13,0 -269.69,-27.33 -382.65,-82 -112.96,-54.65 -202.26,-140.31 -267.85,-256.91 -65.61,-116.62 -98.41,-262.39 -98.41,-437.33l0 -1251.82 -464.65 0 0 -464.63 464.65 0 0 -546.65 590.39 -87.46 0 634.11 754.37 0 -60.13 464.63 -694.24 0 0 1158.89c0,134.86 24.6,233.25 73.79,295.2 49.2,61.95 121.17,92.94 215.92,92.94 54.65,0 109.33,-7.3 164,-21.87 54.65,-14.57 120.26,-36.44 196.78,-65.61l164 404.52zm2246.05 -1366.6c0,112.96 -5.46,235.07 -16.39,366.26l-1629 0c14.57,240.52 82.91,417.25 204.99,530.24 122.08,112.96 274.24,169.46 456.44,169.46 131.2,0 249.64,-17.3 355.33,-51.92 105.69,-34.62 225.95,-90.21 360.78,-166.73l207.72 382.65c-131.2,91.09 -277.87,164 -440.03,218.65 -162.18,54.67 -338.03,82 -527.51,82 -233.25,0 -440.05,-41.92 -620.44,-125.74 -180.39,-83.82 -323.43,-218.65 -429.12,-404.5 -105.69,-185.87 -158.52,-426.39 -158.52,-721.59 0,-255.09 45.53,-481.95 136.65,-680.57 91.12,-198.6 225.95,-354.39 404.52,-467.38 178.57,-112.96 393.59,-169.46 645.04,-169.46 225.95,0 417.27,44.65 573.98,133.92 156.7,89.3 275.14,213.2 355.3,371.72 80.18,158.55 120.26,336.21 120.26,532.99zm-1055.93 -612.24c-156.7,0 -282.42,49.2 -374.44,147.59 -92.94,98.39 -155.79,238.7 -187.69,420.91l1027.69 0 0 -16.39c0,-189.51 -41.9,-328.91 -125.72,-418.18 -83.82,-89.27 -196.81,-133.92 -339.85,-133.92zm2689.79 -426.39c102.05,0 207.72,16.41 317.07,49.2l-98.41 601.33c-58.29,-21.87 -112.96,-38.28 -163.98,-49.22 -51.04,-10.91 -107.51,-16.39 -169.46,-16.39 -105.69,0 -205.01,23.69 -297.92,71.07 -92.94,47.38 -184.96,136.65 -276.05,267.85l0 1574.35 -590.39 0 0 -2421.62 590.39 -54.67 0 344.39c87.46,-120.26 190.39,-211.38 308.83,-273.33 118.44,-61.95 245.09,-92.94 379.92,-92.94z"/>
 </g>
</svg>
