<?xml version="1.0" encoding="UTF-8"?>
<svg id="Layer_1" xmlns="http://www.w3.org/2000/svg" viewBox="0 0 512 512">
  <defs>
    <style>
      .cls-1 {
        fill: #fff;
      }
    </style>
  </defs>
  <path class="cls-1" d="M71.08,165.84c-8.82,0-16.31,3.08-22.46,9.23-6.15,6.15-9.23,13.54-9.23,22.15v132.31c0,8.83,3.08,16.31,9.23,22.46,6.15,6.15,13.64,9.23,22.46,9.23s16.25-3.08,22.31-9.23c6.05-6.15,9.08-13.63,9.08-22.46v-132.31c0-8.62-3.08-16-9.23-22.15s-13.54-9.23-22.16-9.23Z"/>
  <path class="cls-1" d="M325.85,47.07l21.85-40.3c1.43-2.67.92-4.71-1.53-6.15-2.67-1.24-4.72-.61-6.15,1.84l-22.15,40.62c-19.49-8.62-40.11-12.93-61.85-12.93s-42.36,4.32-61.85,12.93L172.01,2.46c-1.44-2.45-3.49-3.08-6.15-1.84-2.46,1.45-2.97,3.48-1.53,6.15l21.85,40.3c-22.15,11.3-39.8,27.03-52.92,47.24-13.13,20.22-19.69,42.31-19.69,66.31h284.61c0-24-6.57-46.09-19.69-66.31-13.13-20.2-30.67-35.94-52.61-47.24ZM199.54,105.69c-2.36,2.37-5.18,3.55-8.46,3.55s-6.05-1.18-8.31-3.55c-2.26-2.36-3.38-5.17-3.38-8.46s1.13-6.1,3.38-8.46c2.26-2.36,5.03-3.54,8.31-3.54s6.1,1.18,8.46,3.54c2.36,2.37,3.54,5.18,3.54,8.46,0,3.29-1.19,6.1-3.54,8.46ZM329.23,105.69c-2.26,2.37-5.03,3.55-8.31,3.55s-6.11-1.18-8.47-3.55c-2.36-2.36-3.54-5.17-3.54-8.46s1.18-6.1,3.54-8.46c2.36-2.36,5.18-3.54,8.47-3.54s6.04,1.18,8.31,3.54c2.26,2.37,3.38,5.18,3.38,8.46s-1.13,6.1-3.38,8.46Z"/>
  <path class="cls-1" d="M114.77,376.61c0,9.44,3.28,17.44,9.84,24,6.57,6.56,14.56,9.84,24,9.84h22.77l.31,69.85c0,8.82,3.08,16.31,9.23,22.46,6.15,6.15,13.54,9.23,22.15,9.23s16.31-3.08,22.46-9.23c6.15-6.15,9.23-13.64,9.23-22.46v-69.85h42.46v69.85c0,8.82,3.08,16.31,9.23,22.46,6.15,6.15,13.64,9.23,22.46,9.23s16.31-3.08,22.46-9.23c6.15-6.15,9.23-13.64,9.23-22.46v-69.85h23.08c9.23,0,17.12-3.28,23.69-9.84,6.56-6.56,9.84-14.56,9.84-24v-204.93H114.77v204.92Z"/>
  <path class="cls-1" d="M440.92,165.84c-8.62,0-16,3.03-22.15,9.08-6.15,6.06-9.23,13.5-9.23,22.31v132.31c0,8.83,3.08,16.31,9.23,22.46,6.15,6.15,13.54,9.23,22.15,9.23s16.31-3.08,22.46-9.23c6.15-6.15,9.23-13.63,9.23-22.46v-132.31c0-8.81-3.08-16.25-9.23-22.31-6.15-6.05-13.64-9.08-22.46-9.08Z"/>
</svg>