<?xml version="1.0" encoding="UTF-8"?>
<svg id="Layer_1" xmlns="http://www.w3.org/2000/svg" viewBox="0 0 512 512">
  <defs>
    <style>
      .cls-1 {
        fill: #fff;
      }
    </style>
  </defs>
  <path class="cls-1" d="M47.68,286.47c0-6.17,0-12.33,0-18.5-.11-74.97,60.97-153.37,141.36-141.72,21.18,3.19,39.96,13.97,60.42,19.7,33.09,6.32,67.6-29.27,113.61-21.44,33.15,2.86,73.05,21.13,86.74,50.91-77.61,47.49-69.9,164.9,14.5,200.15-15.68,47.53-64.23,144.45-124.14,135.08-31.88-5.88-56.77-26.38-91.75-18.18-30.67,5.94-61.77,31.53-92.94,12.75-67.33-49.59-102.47-137.01-107.8-218.75ZM354.62,0c-54.71,6.06-108.44,61.51-98.82,117.67,59.35,3.02,109.13-60.75,101.57-117.67-.92,0-1.83,0-2.75,0Z"/>
</svg>