<?xml version="1.0" encoding="UTF-8"?>
<svg id="Layer_1" xmlns="http://www.w3.org/2000/svg" viewBox="0 0 512 512">
  <defs>
    <style>
      .cls-1 {
        fill: #fff;
      }
    </style>
  </defs>
  <path class="cls-1" d="M331.45,431.99c-13.37-6.35-31.07-17.26-31.99-33.54.48-14.55.22-29.12.13-43.68-1.19-36.61,1.98-74.15-4.51-110.16-19.11,31.89-38.22,63.42-57.1,95.4-4.91,6.74-14.9,1.09-16.31-6.09-3.04-11.52-7.03-22.78-10.63-34.16-17.26-44.8-6.03-61.72-37.99-20.89-11.32,13.32-22.2,29.84-40.39,33.9-6.75,1.06-7.77-14.09-10.18-18.8-2.55-10.27-4.39-20.71-6.85-31-1.33-5.56-2.63-5.51-7.21-1.97-16.89,15.26-40.14,23.85-60.63,10-3.95-3.51-12.92-4.76-11.57-11.32,1.23-9.6,3.57-24.55,16.63-19.47,16.46,6.71,34.59,12.87,46.82-4.2,17.7-23.9,37.67-22.13,39.28,9.9,2.37,14.69,41.58-41.66,46.92-45.89,6.44-8.87,26.62-24.37,33.05-8.4,3.62,15.94,6.65,32.16,14.43,46.72,3.05,3.75,11.72,27.92,16.56,16.94,18.26-31.06,34.58-63.2,51.74-94.87,6.6-8.83,9.47-24.26,21.77-26.21,9.88-1.82,23.96.73,24.98,13.01.14,16.2-.61,32.42-1.07,48.62-.62,36.25-2.49,72.76-3.06,108.84l.79.15c24.04-72.34,46.34-145.29,67.69-218.48,7.08-11.52,25.57-4.49,36.47-3.08,17.57,7.22,11.33,32.26,11.2,47.37-4.76,49.16-8.88,98.24-10.32,147.64,3.51-4.76,5.68-10.25,8.28-15.51,7.34-12.92,24.31-16.57,38.13-16.41,3.41.26,6.79,1.16,10.13,2,8.59,5.18,3.92,22.59,5.1,31.54-4.38,6.29-26.05,6.88-34.38,9.69-11.29,5.2-13.16,27-23.1,36.05-2.6,2.95-7.2,5.64-11.23,3.44-14.51-7.7-29.73-14.09-42.33-24.89-.79-.59-1.4-2.06-1.32-3.06,1.11-14.59,3.4-29.14,3.55-43.78-.36-.08-.73-.16-1.09-.23-19.54,52.83-35.19,107.31-54.5,160.33-2.11,7.28-6.61,16.18-15.91,14.6ZM18.13,261.51c6.5.62,11.1-12.7,3.67-16.59-6.69-3.43-19.1-4.71-21.38,4.45-2.88,10.83,9.63,13.34,17.71,12.14Z"/>
</svg>