<?xml version="1.0" encoding="UTF-8"?>
<svg id="Dimensions" xmlns="http://www.w3.org/2000/svg" viewBox="0 0 512 512">
  <defs>
    <style>
      .cls-1 {
        fill: #fff;
      }
    </style>
  </defs>
  <path class="cls-1" d="M269.88,211.77c-11.4,0-20.68-10.21-20.68-22.75s9.28-22.75,20.68-22.75,20.68,10.21,20.68,22.75-9.28,22.75-20.68,22.75Z"/>
  <path class="cls-1" d="M369.06,186.86c-10.09,0-18.3-9.86-18.3-21.97s8.21-21.97,18.3-21.97,18.3,9.86,18.3,21.97-8.21,21.97-18.3,21.97Z"/>
  <g>
    <path class="cls-1" d="M289.47,287.37c-1.87-6.85-7.06-11.18-15.42-12.87-5.87-1.19-12.9-1.01-19.73-.8-3.46-13.46-11.63-18.38-18.24-18.38-.07,0-.13,0-.2,0-6.63.1-14.85,5.36-17.32,19.61-9.94,5.8-23.37,7.42-33-1.57-2.58-2.41-6.63-2.27-9.05.31-2.41,2.58-2.27,6.63.31,9.05,15.51,14.48,37.47,10.82,51.3,1.29,1.54-1.06,2.54-2.74,2.73-4.6.83-7.94,3.81-11.27,5.21-11.29h.02c1.72,0,5.4,3.79,6.64,12.98.44,3.22,3.22,5.61,6.47,5.54,1.69-.03,3.38-.09,5.07-.14,12.31-.38,21.19-.31,22.76,3.92.29,2.56-.27,4.52-1.73,5.99-2.58,2.61-7.86,3.66-14.14,2.81-1.86-.26-3.75.32-5.14,1.58-1.4,1.26-2.17,3.07-2.12,4.95.19,6.51-.68,10.72-2.6,12.53-3.61,3.41-14.93,2.42-28.04,1.28-1.07-.09-2.16.09-3.14.52-7.58,3.35-14.55,4.85-21.94,6.43l-1.51.32c-3.46.74-5.65,4.15-4.91,7.61.65,3,3.3,5.05,6.25,5.05.45,0,.9-.05,1.35-.14l1.5-.32c7.24-1.55,14.71-3.15,22.89-6.58,16.67,1.45,28.79,2.26,36.33-4.86,4.34-4.1,5.93-9.89,6.43-15.28,7.42-.22,13.62-2.58,17.88-6.89,4.37-4.42,6.23-10.57,5.23-17.31-.04-.25-.09-.5-.16-.75Z"/>
    <path class="cls-1" d="M402.02,192.28c1.89-2.98,1.01-6.94-1.98-8.83-2.98-1.89-6.94-1.01-8.83,1.98-37.67,59.38-101.4,49.96-148.22,31.6-3.29-1.29-7,.33-8.29,3.62-1.29,3.29.33,7,3.62,8.29,25.36,9.94,48.89,14.94,70.25,14.94,7.77,0,15.26-.66,22.44-1.99,29.72-5.49,53.61-22.18,71.02-49.61Z"/>
    <path class="cls-1" d="M462.98,307.94c-4.12-5.8-12.37-12.3-28.32-10.26-11.87,1.52-26.76,7.68-44.27,18.29-5.16-14.36-12.61-29.44-22.29-45.06,26.2-13.21,47.84-29.95,54.38-52.79,5.91-20.64-.89-43.35-20.78-69.4.28-30.72-10.4-58.22-30.94-79.66-19.24-20.07-45.89-33.87-77.09-39.91-3.58-.69-7.18-1.28-10.79-1.75C257.6,5.66,234.62-3.23,214.54,1.04c-19.03,4.04-34.84,19.13-48.25,46.06-19.83-3.63-36.83-3.36-50.58.8-13.62,4.12-23.85,11.86-30.43,23.02-13.05,22.15-8.12,52.27,4.25,70.89-23.1,17.86-33.93,34.81-33.06,51.71.8,15.42,11.14,29.57,31.55,43.07-8.82,7.08-16.04,17.86-15.77,30.22.25,10.96,6.46,26.25,33.07,39.68-7.61,6.14-14.73,13.2-14.16,22.61.5,8.23,6.74,15.84,19.54,23.81-1.95,6.56-4.32,10.52-6.42,11.78-2.32,1.4-6.81-2.6-10.27-6.84-19.48-26.3-37.19-21.52-40.54-20.29-1.46.54-2.68,1.59-3.43,2.96-9.86,18.19-9.29,37.75,1.65,56.55,14.61,25.11,45.18,43.69,59.6,46.48,34.59,39.13,65.76,40.26,90.88,41.18,3.96.14,7.7.28,11.35.55.16.01.32.02.48.02,1.36,0,2.63-.44,3.68-1.18,5.12,7.39,10.39,13.34,15.78,17.78,8.17,6.73,16.64,10.12,25.24,10.12,1.49,0,2.99-.1,4.49-.31,13.33-1.82,26.02-11.82,36.68-28.94,4.94-7.92,9.3-17.16,12.89-27.15,20.45-5.38,37.6-13.35,51.09-23.64,7.25,7.44,15.68,11.17,24.72,11.17,9.52,0,19.73-4.12,29.97-12.37,16.38-13.19,31.99-35.99,41.76-61,10.51-26.88,11.48-49.41,2.67-61.83ZM217.21,13.56c12.33-2.62,26.65,1.52,42.7,12.32-26.19-.11-52.33,5.39-76.23,16.19,10.01-16.33,21.25-25.9,33.53-28.51ZM96.31,77.42c9.57-16.23,29.78-22.74,58.84-19.1-25.21,17.73-44.92,41.87-57.98,71.14-7.62-15.19-9.78-36.91-.86-52.05ZM69.25,192.85c-.54-10.54,6.37-22.18,20.57-34.71-1.68,17.6-1.44,40.71,1.84,65.41-14.35-10.22-21.88-20.52-22.41-30.7ZM85.05,266.52c-.17-7.54,4.54-14.7,10.58-19.66,3.36,16.09,8.09,32.32,14.49,47.7-16.04-8.31-24.85-18.08-25.08-28.04ZM103.94,328.31c-.23-3.75,5.04-8.41,10.58-12.79.27,5.71.15,12.3-.52,19.3-.15,1.59-.33,3.11-.53,4.58-8.23-5.86-9.44-9.6-9.53-11.08ZM301.28,344.42c-20.19-11.62-49.55-.75-87.29,32.3-2.66,2.33-2.93,6.37-.6,9.03,2.33,2.66,6.37,2.93,9.03.6,32.23-28.24,57.96-39.19,72.47-30.84,14.27,8.22,19.34,36.79,12.62,71.11-7.71,39.36-27.08,69.81-46.04,72.39-14.51,1.98-29.82-12.22-44.27-41.06-1.58-3.16-5.43-4.44-8.59-2.86-3.16,1.58-4.44,5.43-2.86,8.59,1.5,2.99,3.02,5.84,4.55,8.57-2.51-.13-5.04-.23-7.67-.32-25.41-.92-51.68-1.88-83.27-38.6-1.19-1.38-2.9-2.19-4.72-2.22-7.38-.15-37.81-16.26-51.9-40.47-8.18-14.06-9.1-27.99-2.76-41.45,4.8-.25,13.83,2.87,23.81,16.39.06.08.12.15.18.23,11.72,14.46,21.09,13.35,26.89,9.86,10.55-6.34,14.45-25.04,15.87-39.6,1.38-14.23.9-33-3.32-42.94-8.09-18.5-13.58-38.41-17.04-57.75-.02-.12-.03-.23-.06-.35-6.47-36.43-5.75-70.84-1.64-90.13,33.41-89.22,120.07-116.03,186.55-103.15,60.76,11.77,99.09,54.54,97.64,108.97-.04,1.49.44,2.94,1.36,4.11,18.27,23.34,24.8,42.9,19.96,59.79-5.69,19.88-27.58,35.19-52.73,47.24-.76.16-1.5.45-2.19.9-.19.12-.36.25-.53.39-11.38,5.3-23.31,9.95-34.65,14.08-3.32,1.21-5.03,4.88-3.83,8.2,1.21,3.32,4.88,5.04,8.2,3.83,10.73-3.9,21.59-8.12,32.02-12.8,27.74,44.34,36.3,83.31,24.72,112.96-9.24,23.67-31.24,41.38-63.87,51.58,1.04-3.91,1.96-7.89,2.75-11.91,6.29-32.08,4.65-71.17-18.79-84.66ZM448.39,365.11c-8.86,22.67-23.37,44.01-37.87,55.69-14.49,11.67-26.92,12.59-36.98,2.76,8.69-8.6,15.27-18.47,19.57-29.49,6.67-17.08,7.72-36.57,3.12-57.92-.54-2.51-1.17-5.05-1.87-7.61.1-.05.2-.1.29-.16,29.6-18.4,50.7-23.15,57.89-13.02,6.09,8.58,4.5,27.65-4.15,49.76Z"/>
  </g>
</svg>