<?xml version="1.0" encoding="UTF-8"?>
<svg id="Dimensions" xmlns="http://www.w3.org/2000/svg" viewBox="0 0 512 512">
  <defs>
    <style>
      .cls-1 {
        fill: #fff;
      }
    </style>
  </defs>
  <path class="cls-1" d="M110.98,60.31c58.7,44.22,121.84,133.86,145.02,181.96v127.06c0-2.7-1.04.35-3.28,6.94-12.1,35.65-59.34,174.78-167.38,63.55-56.89-58.56-30.55-117.12,73-134.8-59.24,10.11-125.84-6.6-144.11-72.12C8.96,214.04,0,97.95,0,82.27,0,3.72,68.63,28.41,110.98,60.31ZM401.02,60.31c-58.7,44.22-121.84,133.86-145.02,181.96v127.06c0-2.7,1.04.35,3.28,6.94,12.1,35.65,59.34,174.78,167.38,63.55,56.89-58.56,30.55-117.12-73-134.8,59.24,10.11,125.84-6.6,144.11-72.12,5.26-18.85,14.22-134.94,14.22-150.62,0-78.54-68.62-53.86-110.98-21.96Z"/>
</svg>