<?xml version="1.0" encoding="UTF-8"?>
<svg id="Dimensions" xmlns="http://www.w3.org/2000/svg" viewBox="0 0 512 512">
  <defs>
    <style>
      .cls-1 {
        fill: #fff;
        fill-rule: evenodd;
      }
    </style>
  </defs>
  <path class="cls-1" d="M330.15,233.92c66.01,0,117.03-52.48,117.03-116.61S394.62,1.12,329.73.64c-53.39-.34-95.35.07-166.73.07-9.41,0-17.5,6.41-19.59,15.45l-10.04,44c-.35,1.66.77,3.24,2.44,3.45l117.45,15.45,31.02,4.14c30.25,4,51.3,25.31,50.6,54.34-.56,24.2-17.22,45.03-41.12,50.47-34.71,7.86-65.8-17.72-66.35-50.89-.14-10.48,2.79-20.34,7.95-28.69l-107.06-14.07c-1.47-.21-2.86.76-3.21,2.21l-40.29,176.67c-.35,1.65.77,3.24,2.44,3.45l164.14,21.52,17.71,2.34c35.27,4.76,63.22,30.48,62.17,66.06-.91,30.41-23.7,56.41-54.09,61.3-39.94,6.41-74.86-23.65-75.55-62.2-.28-15.24,4.88-29.31,13.66-40.48l-135.57-17.65c-1.46-.2-2.86.76-3.21,2.21l-31.64,138.95c-7.32,31.92,17.15,62.61,50.25,62.75,34.78.07,164.63-.07,233.57-.07,77.51,0,139.75-62.06,139.75-138.74s-61.06-138.74-138.29-138.74Z"/>
</svg>