<?xml version="1.0" encoding="UTF-8"?>
<svg id="Dimensions" xmlns="http://www.w3.org/2000/svg" viewBox="0 0 512 512">
  <defs>
    <style>
      .cls-1 {
        fill: #fff;
      }
    </style>
  </defs>
  <path class="cls-1" d="M232.25,202.97H53.39c10.64-14.79,19.88-27.71,29.19-40.57C120.28,110.38,157.94,58.33,195.87,6.48c2.2-3.01,6.66-6.18,10.08-6.2C261.51-.1,317.07.01,372.63.03c1.11,0,2.22.25,4.85.56-17.72,24.59-34.89,48.4-53.26,73.88h178.85c-74.06,102.23-146.7,202.49-220.85,304.85,5.06,0,8.28,0,11.49,0,59.92,0,119.85.16,179.77-.19,8.12-.05,10.3,2.28,10.22,10.24-.38,37.53-.35,75.06-.02,112.59.07,7.44-1.74,10.04-9.65,10.02-151.84-.22-303.68-.16-455.53-.18-2.54,0-5.09-.29-9.58-.57,74.54-102.9,148.21-204.59,223.32-308.28Z"/>
</svg>