<?xml version="1.0" encoding="UTF-8"?>
<svg id="Layer_1" xmlns="http://www.w3.org/2000/svg" viewBox="0 0 512 512">
  <defs>
    <style>
      .cls-1 {
        fill: #fff;
      }
    </style>
  </defs>
  <path class="cls-1" d="M301.59,242.51c-1,0-2-.14-3.02-.45-4.29-1.3-6.58-5.07-8.38-8.5-7.39-13.73-13.48-25.34-18.63-38.85-4.98-12.67-8.85-24.81-11.82-37.05-1.56-6.53-2.74-11.77-3.73-16.16-2.59-11.48-3.77-16.71-6.83-24.12l-.19-.46-.11-.49c-2.46-10.52-5.4-25.27-5.4-35.77,0-17.85,15.6-25.98,30.09-25.98,16.8,0,21.79,10.69,24.67,22.24,2.75,10.2,3.89,19.58,5,29.9,1.49,10.32,6.69,34.08,8.09,39.69,5.46,20.03,16.79,44.57,29.91,72.99l2.89,6.25-6.53,2.18c-7.46,2.49-17.54,6.79-24.51,10.45-4.35,2.36-7.95,4.12-11.51,4.12Z"/>
  <path class="cls-1" d="M353.2,457.31c-26.04,0-52.08-7.66-73.34-21.57-29.38-19.46-47.93-49.76-65.87-79.06l-1.11-1.81c-14.34-23.9-24.58-43-40.84-81.24-8.34-20.17-17.06-42.06-24.45-65.78-4.01-12.94-3.29-23.01,2.16-29.94l.14-.17c5-5.92,12.01-9.16,20.82-9.65,17-.58,22.53,12.89,29.03,33.46,3.76,12.31,11.45,30.84,16.91,43.04,6.77,13.94,15.25,30.39,18.95,35.81l.1.15c2.51,3.9,3.78,3.9,4.54,3.9,4.31,0,4.31-2.32,4.31-3.19-.11-1.61-2.82-6.43-3.84-8.25l-.62-1.1c-.73-1.38-1.55-2.9-2.48-4.62-3.63-6.73-9.12-16.91-13.09-25.77-5.46-12.48-11.53-27.74-16.25-40.85-3.03-7.96-6.49-19.47-9.83-30.61-5.14-16.87-8.11-28.4-8.11-37.33,0-15.3,11.76-25.98,28.6-25.98,13.9,0,21.73,8.13,26.19,27.19,5.57,26.61,11.33,46.81,17.64,61.88,5.91,14.19,14.01,31.7,18.43,39.86.85,1.48,1.81,3.02,2.73,4.5,2.63,4.22,4.37,7.01,4.37,10.03,0,3.96-2.63,7-5.96,10.84-1.41,1.62-2.86,3.3-4.21,5.15l-.11.14c-2.44,3.14-2.44,3.99-2.44,4.44.16.66,1.93,3.01,2.51,3.78.59.79,1.44,1.92,2.16,2.74,11.12-13.78,23.87-24.48,40.03-33.61,18.86-10.66,37.78-15.51,50.38-18.23,2-.45,3.11-.81,3.7-1.05-.11-.38-.53-.86-2.17-1l-.17-.02c-2.18-.24-4.28-.08-7.78.19-.81.06-1.68.13-2.62.2-9.01.85-12.35-6.42-13.96-9.92-1.01-2.13-2.19-4.54-3.49-7.18-7.07-14.41-17.77-36.19-24.56-62.71-3-11.68-6.35-26.25-8.38-45.7-1.27-9.46.42-14.76,6.46-20.25l.13-.12c6.69-5.74,18.16-8.16,27.27-5.77,13.46,3.51,18,16.26,22.08,40.1,2.47,13.56,6.3,28.77,10.24,40.64,5.63,17.28,13,31.71,23.07,49.42,5.26,9.21,12.1,19.41,20.89,31.18l1.93,2.58-1.02,3.06c-2.1,6.29-6.03,10.28-14.64,17.39-9.02,7.45-16.49,14.15-23.62,26.71-5.47,9.85-7.42,20.04-7.42,25.75,0,1.1.04,1.88.1,2.44,4.54-.02,7.18-.59,8.42-1.02,1.98-13.67,4.61-22.8,12.53-33.53l.15-.19c4.67-5.84,12.44-12.93,19.43-19.1l.19-.16c11.28-9.16,14.51-13.81,18.17-26.14,2.16-7.33,4.64-13.59,7.57-19.09,10.97-20.2,26.98-31.31,45.11-31.31,9.13,0,15.9,3.34,20.14,9.93,3.34,5.34,3.6,11.63,3.6,13.43,0,7.87-4.83,17.48-7.42,22.65l-1.56,3.28c-7.89,16.77-19.81,42.12-19.81,70.2,0,54.5-15.02,95.93-44.66,123.15-22.87,21.47-54,33.82-85.35,33.82Z"/>
  <path class="cls-1" d="M115.71,331.15c-7.92,4.9-49.9,26.89-59.39,30.39-6.77,2.52-14.11,1.9-18.43-10.88-5.3-15.81,2.14-19.55,12.75-23.66,9.38-3.64,48.31-17.71,57.35-20.16,6.36-1.7,10.78.44,13.84,8.09,3.37,8.4,1.05,11.76-6.12,16.22h0Z"/>
  <path class="cls-1" d="M81.1,242.04c-11.29.31-58.17-1.7-68.87-2.75-9.31-.92-13.09-5.03-12.07-18.53,1.09-14.48,6.73-15.37,15.88-14.48,10.61,1.02,59.73,9.01,67.55,11.42,8.09,2.52,9.21,6.19,8.23,13.26-1.26,9.18-5.41,10.91-10.71,11.08h0Z"/>
  <path class="cls-1" d="M86.92,147.13c-12.92-4.08-51.26-27.3-61.26-33.28-9.04-5.44-10.2-10.33-3.91-22.27,5.58-10.54,11.76-12.37,20.94-7.61,10.64,5.54,48.21,34.78,55.38,40.56,6.94,5.58,5.98,8.46,2.35,15.64-3.64,7.17-7.04,9.01-13.5,6.97h0Z"/>
</svg>