<?xml version="1.0" encoding="UTF-8"?>
<svg id="Dimensions" xmlns="http://www.w3.org/2000/svg" viewBox="0 0 512 512">
  <defs>
    <style>
      .cls-1 {
        fill: #fff;
      }
    </style>
  </defs>
  <path class="cls-1" d="M255.91.5C117.7.5,4.27,114.92,4.27,256.11s112.91,255.39,251.64,255.39c63.66.04,124.88-24.46,170.94-68.41,9.45-8.63,10.11-23.28,1.48-32.73-8.63-9.45-23.28-10.11-32.73-1.48l-.5.5c-81.45,77.43-210.26,74.18-287.69-7.28-1.89-1.99-3.74-4.02-5.55-6.08l107.5-172.39v79.77c0,38.12,14.86,50.52,27.36,53.99,12.49,3.47,31.23.96,51.53-31.23l58.98-95.77c1.57-2.8,3.4-5.45,5.41-7.95v48.57c0,35.66,14.37,64.39,39.12,78.25,23.28,12.68,51.65,11.54,73.84-2.95,28.6-18.56,43.95-51.07,41.96-90.21v-.99C507.06,114.92,394.13.5,255.91.5ZM442.17,306.13v.14h-.02c-8.09,5.57-18.56,6.32-27.36,1.96-9.91-5.93-15.87-19.29-15.87-37.62v-56.15c0-26.72-10.4-46.06-28.22-50.98-30.24-9.13-53,28.22-61.44,42.1l-53.35,85.68v-105.5c-.5-24.26-8.44-38.63-23.3-43.11-9.91-2.96-24.77-1.45-39.12,20.35l-119.39,191.2c-15.88-30.26-24.21-63.92-24.26-98.1,0-115.43,92.62-209.05,206.08-209.05s206.08,93.62,206.08,209.05v1.01c1.19,22.26-5.96,40.13-19.82,49.02Z"/>
</svg>