<?xml version="1.0" encoding="UTF-8"?>
<svg id="Layer_1" xmlns="http://www.w3.org/2000/svg" viewBox="0 0 512 512">
  <defs>
    <style>
      .cls-1 {
        fill: #fff;
      }
    </style>
  </defs>
  <path class="cls-1" d="M266.16,328.04c-12.09,0-23.1-1.41-33.6-4.29-10.11-2.78-17.94-6.52-24.62-11.77-9.23-7.24-15.89-16.51-19.81-27.55-2.86-8.06-4.2-14.95-4.2-21.69,0-1.6-.02-3.21-.05-4.82-.09-5.88-.18-11.97.86-17.89,4.17-23.72,17.04-40.17,38.27-48.91,8.02-3.3,16.43-5.33,24.99-6.05,1.7-.14,3.4-.34,5.09-.54,3.13-.37,6.38-.75,9.65-.77,16.1-.11,32.48-.09,48.31-.07,5.76,0,11.53.01,17.29.01,6.17,0,7.51,1.36,7.57,7.64.01,1.74.01,3.48.01,5.22,0,3.3-.01,6.71.12,10.02.05,1.39-.05,3.41-1.5,4.92-1.43,1.48-3.37,1.68-4.93,1.68h-.08l-11.33-.05c-18.84-.09-38.32-.19-57.45.11-10.97.18-19.83,2.99-27.09,8.6-4.89,3.78-8.43,9.07-10.83,16.17-2.24,6.62-2.94,13.9-2.21,22.89.69,8.49,2.38,14.93,5.31,20.29,3.88,7.09,10.16,11.88,19.74,15.08,4.59,1.53,9.55,2.28,15.15,2.28h.06c7.47,0,14.95,0,22.42,0,15.64,0,31.82,0,47.72-.07,1.53.02,3.65.17,5.22,1.76,1.56,1.57,1.72,3.73,1.7,5.21-.06,4.51-.05,8.97-.03,13.7v8.83s-7.32,0-7.32,0c-6.17,0-12.35-.01-18.52-.02-14.57-.03-29.62-.06-44.42.08-.5,0-1,0-1.49,0Z"/>
  <path class="cls-1" d="M507.68,238.19h-26.89c-9.01-107.9-95.82-194.04-204.01-201.97V4.32c0-2.39-1.94-4.32-4.32-4.32h-26.97c-2.39,0-4.32,1.94-4.32,4.32v32.15c-106.81,9.28-192.12,94.81-201.05,201.72H4.32c-2.39,0-4.32,1.94-4.32,4.32v26.97c0,2.39,1.94,4.32,4.32,4.32h35.66c8.25,107.61,93.87,193.89,201.18,203.21v30.66c0,2.39,1.94,4.32,4.32,4.32h26.97c2.39,0,4.32-1.94,4.32-4.32v-30.41c108.7-7.97,195.82-94.86,204.15-203.45h26.75c2.39,0,4.32-1.94,4.32-4.32v-26.97c0-2.39-1.94-4.32-4.32-4.32ZM276.78,447.48v-100.34c0-2.39-1.94-4.32-4.32-4.32h-26.97c-2.39,0-4.32,1.94-4.32,4.32v100.08c-90.93-9.14-163.28-82.18-171.38-173.41h95.08c2.39,0,4.32-1.94,4.32-4.32v-26.97c0-2.39-1.94-4.32-4.32-4.32h-94.95c8.75-90.54,80.81-162.83,171.25-171.93v98.59c0,2.39,1.94,4.32,4.32,4.32h26.97c2.39,0,4.32-1.94,4.32-4.32v-98.86c91.82,7.79,165.38,80.67,174.22,172.19h-103.85c-2.39,0-4.32,1.94-4.32,4.32v26.97c0,2.39,1.94,4.32,4.32,4.32h103.99c-8.19,92.22-82.03,165.84-174.35,173.67Z"/>
  <path class="cls-1" d="M95.59,215.19c14.3-62.04,62.96-111.1,124.8-125.95v-10.67c-67.58,15.23-120.8,68.83-135.46,136.62h10.67Z"/>
  <path class="cls-1" d="M220.38,416.8c-61.34-14.73-109.74-63.09-124.47-124.44h-10.67c15.11,67.09,68.05,120.02,135.13,135.14v-10.7Z"/>
  <g>
    <path class="cls-1" d="M423.48,292.36c-14.85,61.84-63.87,110.53-125.92,124.82v10.63c67.79-14.66,121.4-67.88,136.62-135.46h-10.7Z"/>
    <path class="cls-1" d="M423.84,215.19h10.66c-14.77-68.29-68.66-122.17-136.95-136.94v10.63c62.55,14.41,111.87,63.76,126.28,126.31Z"/>
  </g>
</svg>