<?xml version="1.0" encoding="UTF-8"?>
<svg id="Layer_1" xmlns="http://www.w3.org/2000/svg" viewBox="0 0 512 512">
  <defs>
    <style>
      .cls-1 {
        fill: #fff;
      }
    </style>
  </defs>
  <path class="cls-1" d="M471.02,334.16c-16.22-.08-32.46.45-48.65-.22-8.39-.34-12.98,3.1-18.12,9.39-16.65,20.35-36.37,37.16-63.06,48.64,22.15-78.85,43.8-155.88,65.11-231.75,23.32,0,45.74.23,68.15-.12,7.92-.13,13.08-10.33,9.17-17.86-12.16-23.44-28.06-44.15-47.77-61.64-4.49-3.99-5.54-6.84-3.94-12.32,4.94-16.93,9.46-33.98,13.92-51.04,2.74-10.45-1.42-15.92-11.9-16.12-24.37-.47-44.61,9.47-61.72,25.89-5.97,5.73-10.77,6.24-18.53,4.04-18.55-5.24-37.41-11.42-56.43-12.59-36.61-2.25-73.46-1.72-108.94,10.44-3.41,1.17-7.07,1.62-10.53,2.38-2.86-10.2-5.37-19.15-7.88-28.1-1.25-1.06-2.5-2.12-3.74-3.18-1.45.03-2.9.05-4.34.08-30.28,0-60.57,0-90.85,0-2.15-.01-4.31-.03-6.46-.04-.71.3-1.43.6-2.14.9-5.92,6.59-8.1,13.21-1.39,20.86,13.59,15.51,26.68,31.46,40.51,46.76,4.15,4.59,3.88,7.2-.13,11.34-9.28,9.58-19.29,18.75-26.97,29.53-33.93,47.63-52.33,99.66-46.13,159.48,4.99,48.1,23.55,90.01,54.39,125.99,31.94,37.28,72.53,62.59,120.37,74.69,13.07,3.31,18.91,9.83,20.84,22.88,2.04,13.82,10.24,19.52,23.89,19.52,14.46,0,28.91,0,43.37,0,10.89,0,18.4-5.71,21.23-16.04,1.36-4.97,2.17-10.24,4.4-14.78,1.72-3.49,4.83-7.99,8.1-8.76,26.26-6.2,50.67-16.5,73.72-30.44,36.05-21.8,64.37-50.99,84.44-88.08,5.34-9.87-.76-19.68-11.95-19.73ZM107.86,298.85c-18.23-49.74-10.08-97.2,21.36-143.1,22.35,79.45,44.1,156.75,66.67,236.98-44.02-19.88-72.58-51.73-88.03-93.87ZM336.95,109.52c-10.18,37.2-20.79,74.27-31.32,111.38-12.14,42.8-24.3,85.6-36.44,128.41-.64.04-1.27.09-1.91.13-23.18-82.54-46.36-165.09-70.16-249.81,14.02-3.57,27.4-8.53,41.18-10.18,32.71-3.91,65.29-2.86,96.27,10.21,1.91.81,3.19,6.89,2.38,9.87Z"/>
</svg>