<?xml version="1.0" encoding="UTF-8"?>
<svg id="Layer_1" xmlns="http://www.w3.org/2000/svg" viewBox="0 0 512 512">
  <defs>
    <style>
      .cls-1 {
        fill: #fff;
      }
    </style>
  </defs>
  <path class="cls-1" d="M434.01,329.08c-13.89-12.4-25.07-29.93-40.91-39.42-12.31,31.92-27.12,61.4-56.32,80.32-53.98,38.46-126.5,34.94-175.68-10.11-2.04-1.96-4.4-3.58-6.18-5.8-76.58-77.36-38.61-206.53,65.05-235.46,76.73-16.85,155.79,27.25,173.21,105.78,17.68-17.03,34-33.58,51.14-50.87,2.41-2.45,6.09-4.73,3.73-9.36-8.8-17.22-18.16-34.19-31.75-48.09-28.8-31.04-64.05-55.27-105.25-66.36-9.25-2.65-14.44-11.8-21.57-17.74-9.54-10.9-23.2-19.27-30.05-31.96h-7.09c-11.97,15.59-27.53,28.81-41.49,42.65-4.23,2.84-8.41,6.45-13.15,7.71-31.38,9.81-47.44,17.16-77.17,40.73-46.31,37.39-53.98,70.17-77.3,119.57-14.78,15.21-29.44,30.63-45.28,44.74v1.01c16.29,13.6,30.38,29.71,45.59,44.51,8.46,7.35,8.33,19.2,12.49,28.86,10.96,27.67,25.78,53.05,47.4,73.78,10.6,10.61,23.56,19.03,34.25,29.41,19.09,13.23,39.6,23.29,62.42,28.36,10,3.68,16.32,13.76,24.37,20.42,1.14,1.27,2.33,2.53,3.49,3.79,0,0-.03-.03-.03-.03,6.49,6.52,12.88,13.14,19.41,19.63,7.63,7.58,6.53,10.15,15.89,1.08,12.81-12.43,25.22-25.29,37.75-38h0c10.93-9.23,25.79-10.28,38.21-16.53,21.2-10.57,41.93-22.7,59.71-38.49,20.38-18.23,36.17-40.04,48.6-64.35,4.42-9.16-9.2-13.41-13.48-19.77ZM300.92,465.28c0-.48.03-.94.09-1.39-.06.45-.08.91-.09,1.39Z"/>
  <path class="cls-1" d="M512.56,254.14c-15.42-15.08-30.77-30.24-46.38-45.13-4.79-5.52-6.97.6-10.71,3.83-13.19,13.27-26.29,26.65-39.66,39.74-3.02,2.96-2.56,5.14-.07,7.58,14.3,13.04,27.57,27.16,41.2,40.9,2.56,1.83,3.75,7.94,8.46,3.37,16.37-15.85,32.55-31.89,48.65-47.72-.82-1.42-1.04-2.11-1.5-2.56Z"/>
</svg>