<?xml version="1.0" encoding="UTF-8"?>
<svg id="Layer_1" xmlns="http://www.w3.org/2000/svg" viewBox="0 0 512 512">
  <defs>
    <style>
      .cls-1 {
        fill: #fff;
      }
    </style>
  </defs>
  <path class="cls-1" d="M236.34,510.35c7.49-20.48,15.09-40.29,21.92-60.36,3.91-11.48,9.43-22.03,17.76-30.54,22.11-22.57,39.07-48.58,54.85-75.75,16.43-28.29,34.65-55.54,51.99-83.3,11.35-18.17,22.7-36.34,33.67-54.74,4.35-7.28,6.46-15.25,3.86-23.98-2.04-6.87-8.42-10.8-15.46-8.86-8.04,2.21-13.19,7.96-17.8,14.39-12.58,17.57-25.01,35.26-37.89,52.61-3.23,4.35-8.1,7.46-11.98,11.38-4.3,4.34-8.15,9.13-12.55,13.36-1.62,1.56-4.26,2.06-6.43,3.05-.86-2.74-2.27-5.44-2.46-8.22-.5-7.42.21-14.97-.8-22.3-1.62-11.85-19.95-19.05-29.83-7-2.93,3.58-6.68,6.48-9.99,9.63-4.99-3.18-5.96-6.05-4.61-11.32,3.56-13.85-6.91-25.74-21.21-26.37-8.09-.36-13.99,2.48-19.32,8.02-2.07,2.14-4.83,3.62-8.69,6.44-1.62-5.46-3.48-9.71-4.05-14.12-1.2-9.31-2.02-18.69-2.43-28.07-.41-9.33-.54-18.72-.07-28.05.88-17.44,2.67-34.83,3.25-52.27.2-5.98-.98-12.58-3.54-17.94-4.29-8.98-16.16-10.03-23.57-3.33-7.47,6.76-10.11,15.27-10.96,24.99-1.11,12.6-3.17,25.11-4.58,37.68-1.03,9.13-2.16,18.29-2.38,27.46-.39,16.28.02,32.58-.17,48.87-.09,8.25-.48,16.52-1.22,24.74-.72,7.96-7.6,11.23-12.89,15.79-8.13,7.01-16.82,13.72-23.42,22.03-4.01,5.04-5.94,12.75-6.36,19.42-1.46,23.2,2.9,45.17,14.51,65.89,8.45,15.07,9.18,31.17,2.41,47.82-7.99,19.62-14.66,39.78-21.89,59.71-2.31,6.37-3.07,6.64-8.5,3.05-16.91-11.2-32.65-23.87-46.39-38.74-20.01-21.66-36.01-45.97-48.17-72.97-9.06-20.11-15.47-41.02-18.42-62.53C-.24,275.91-1.43,255.29.07,235.18c2.99-40.07,15.47-77.56,36.56-112.09,11.83-19.38,25.74-37.07,42.21-52.63,25.94-24.51,55.72-43.01,89.41-55.24,20.1-7.29,40.83-11.82,61.99-14.06,18.04-1.91,36.06-1.35,54.22.7,24.75,2.79,48.52,8.5,71.37,18.13,23.98,10.1,45.97,23.41,65.94,40.17,26.86,22.54,48.35,49.35,64.14,80.46,10.88,21.46,18.86,44.16,22.6,68.02,1.96,12.52,2.93,25.23,3.65,37.89,3.07,53.39-11.11,102.18-39.61,147.25-12.64,19.99-28.1,37.5-45.5,53.26-14.18,12.85-30.06,23.47-46.82,32.92-23.99,13.53-49.68,22.21-76.42,27.84-21.35,4.49-43.13,4.48-64.87,3.93-.84-.02-1.66-.87-2.61-1.4Z"/>
</svg>