<?xml version="1.0" encoding="UTF-8"?>
<svg id="Layer_1" xmlns="http://www.w3.org/2000/svg" viewBox="0 0 512 512">
  <defs>
    <style>
      .cls-1 {
        fill: #fff;
      }
    </style>
  </defs>
  <path class="cls-1" d="M81.4,374.06c-.91-.86-1.81-1.73-2.72-2.59-.16.92-.31,1.85-.47,2.77-.07,14.28-.33,28.57-.06,42.85.05,2.59,1.65,5.72,3.52,7.63,20.03,20.36,40.25,40.54,60.47,60.72,1.22,1.21,2.81,2.05,5.48,3.97,0-18.09.1-34.73-.16-51.36-.03-1.71-2.01-3.63-3.49-5.04-9.45-9.07-18.99-18.04-28.54-27.01-11.33-10.66-22.69-21.28-34.04-31.92Z"/>
  <path class="cls-1" d="M53.49.03c.48,1.6.47,2.28.8,2.59,21.52,20.1,42.97,40.29,64.76,60.09,2.67,2.42,7.25,3.8,10.97,3.84,29.15.31,58.31.22,87.46.15,25.48-.05,50.54,3.56,74.19,12.75,44.98,17.48,79.43,47.22,101.64,90.76,16.01,31.39,22.36,64.25,19.79,99.36-1.65,22.52-7.03,43.73-16.33,64.16-13.63,29.94-34.19,54.17-60.66,73.4-30.37,22.06-64.47,34.33-101.92,36.24-18.85.96-37.79.17-56.93.17v68.46c27.15-1.4,53.76-2.39,80.32-4.24,26.64-1.85,51.75-10.2,75.69-21.47,37.82-17.79,70.27-42.56,95.79-76.14,40.11-52.77,57.9-111.63,51.79-178-2.14-23.19-6.92-45.44-15.17-67-12.32-32.22-30.48-60.85-54.53-85.66-23.52-24.26-50.92-42.91-81.72-56.8-26.32-11.87-54.07-18.31-82.51-21.24C228.98-.38,210.76.15,192.67.09,146.52-.07,100.36.03,53.49.03Z"/>
  <path class="cls-1" d="M129,158.1c28.45,0,56.42.07,84.39-.03,16.29-.05,32.26,2,47.31,8.3,33.88,14.17,54.76,40,59.32,75.94,4.52,35.57-7.25,66.49-36.79,89.01-16.27,12.4-34.67,20.65-55.01,21.1-39.56.88-79.16.11-118.74.03-2.62,0-5.24,0-9.07,0,1.45,1.78,2,2.61,2.7,3.28,17.73,16.63,35.54,33.17,53.19,49.88,7.82,7.4,16.28,11.26,27.64,10.22,12.81-1.17,25.87.47,38.72-.46,15-1.09,30.38-1.9,44.73-5.91,30.12-8.41,55.78-24.63,76.95-48.22,34.47-38.41,46.3-83.44,38.47-133.35-6.17-39.34-26.03-72.05-57.31-96.86-30.81-24.43-66.49-35.89-105.82-35.89-21.72,0-43.44,0-65.15,0-8.44,0-16.88,0-25.54,0v62.96Z"/>
  <path class="cls-1" d="M99.6,138.22c0-18.32.13-33.95-.14-49.57-.04-2.33-1.41-5.18-3.1-6.84-14.21-13.98-28.56-27.84-43.04-41.54-7.34-6.95-15.06-13.5-23.32-20.86,0,16.18-.1,31.25.11,46.32.03,2.16.98,4.88,2.47,6.37,21.66,21.57,43.49,42.98,67.01,66.12Z"/>
</svg>