<?xml version="1.0" encoding="UTF-8"?>
<svg id="Layer_1" xmlns="http://www.w3.org/2000/svg" viewBox="0 0 512 512">
  <defs>
    <style>
      .cls-1 {
        fill: #fff;
      }
    </style>
  </defs>
  <path class="cls-1" d="M501.2,71.38c.25-.19,23.38,63.45,1.16,120.19.3-.76-79.31,141.19-159.14,167.08,11.63,37.38,41.74,107.75,42.05,106.87,2.22,3.21,2.47,8.54.88,17.61-12.32,16.24-38.69,31.52-60.94,23.32-25.11-44.9-43.58-94.05-56.17-143.78-1.14-.02-46.05-200.17-3.7-290.67,96.21-71.22,70.42-18.65,55.37,58.74,17.68-13.84,25.41-42.56,43.26-59.69,33.07-46.86,112.63-62.96,137.23.33ZM336.44,317.1c70.82-45.01,126.99-156.36,84.55-235.79-68.84,47.49-81.69,154.97-84.55,235.79Z"/>
  <path class="cls-1" d="M258.81,364.76c-48.67,15.03-65.05,2.04-74.98-45.99-8.87,15.73-17.65,30.72-30.57,43.48-17.78,11.98-32.95,22.82-55.86,21.04-21.6,2.19-39.66-9.88-55.68-22.72-23.56-17.17-36.12-47.12-40.17-75.47-4.98-47.9.77-107.56,36.54-142.33,28.24-25.56,74.38-53.88,109.46-25-2.07-24.22-15.31-60.41-.81-81.31.89-1.86,1.24-3.35,3.67-3.76,11.96-11.11,22.65-34.1,42.45-28.61,37.78,19.11,40.62,69.32,40.13,107.11-4.6,84.42-24.25,178.56,25.82,253.55ZM125.43,222.43c-5.04-23.39-4.5-76.76-40.58-67.28-15.97,9.06-19,30.38-22.51,46.89-5.75,26.66-3.52,53.77,1.9,80.29,6.69,40.61,37.48,76.49,72.27,34.59,4.71-4.84,15.59-18.54,15.98-19.39,6.63-16.59,17.41-32.67,19.38-50.62-1.49-18.24-4.55-37.01-8.88-54.76-9.08,14.19-23.56,21.78-37.58,30.28Z"/>
</svg>