<?xml version="1.0" encoding="UTF-8"?>
<svg id="Layer_1" xmlns="http://www.w3.org/2000/svg" viewBox="0 0 512 512">
  <defs>
    <style>
      .cls-1 {
        fill: #fff;
      }
    </style>
  </defs>
  <path class="cls-1" d="M512,152.41h-110.44v-63.93h110.44v63.93ZM512,179.12h-110.44v63.93h110.44v-63.93ZM512,268.95h-110.44v63.93h110.44v-63.93ZM512,359.59h-110.44v63.93h110.44v-63.93ZM244.8,243.05h-110.44v-63.93h110.44v63.93ZM244.8,268.95h-110.44v63.93h110.44v-63.93ZM244.8,359.59h-110.44v63.93h110.44v-63.93ZM110.44,359.59H0v63.93h110.44v-63.93ZM378.4,332.88h-110.44v-63.93h110.44v63.93ZM378.4,359.59h-110.44v63.93h110.44v-63.93Z"/>
</svg>