<?xml version="1.0" encoding="UTF-8"?>
<svg id="Layer_1" xmlns="http://www.w3.org/2000/svg" viewBox="0 0 512 512">
  <defs>
    <style>
      .cls-1 {
        fill: #fff;
      }
    </style>
  </defs>
  <path class="cls-1" d="M433.71,91.02c-33.14-15.51-68.58-26.78-105.63-33.19-4.55,8.23-9.87,19.29-13.53,28.09-39.38-5.92-78.41-5.92-117.07,0-3.66-8.8-9.1-19.87-13.69-28.09-37.09,6.42-72.57,17.73-105.71,33.28C11.24,192.12-6.89,290.63,2.17,387.74c44.34,33.11,87.31,53.22,129.55,66.39,10.43-14.35,19.73-29.61,27.75-45.7-15.26-5.8-29.88-12.96-43.69-21.26,3.66-2.71,7.25-5.55,10.71-8.47,84.25,39.4,175.78,39.4,259.02,0,3.5,2.92,7.09,5.76,10.71,8.47-13.85,8.35-28.51,15.51-43.77,21.31,8.01,16.04,17.28,31.34,27.75,45.7,42.28-13.16,85.29-33.27,129.63-66.43,10.63-112.58-18.16-210.18-76.11-296.72ZM170.95,328.02c-25.29,0-46.03-23.61-46.03-52.36s20.3-52.4,46.03-52.4,46.47,23.61,46.03,52.4c.04,28.75-20.3,52.36-46.03,52.36ZM341.05,328.02c-25.29,0-46.03-23.61-46.03-52.36s20.3-52.4,46.03-52.4,46.47,23.61,46.03,52.4c0,28.75-20.3,52.36-46.03,52.36Z"/>
</svg>