<?xml version="1.0" encoding="UTF-8"?>
<svg id="Layer_1" xmlns="http://www.w3.org/2000/svg" viewBox="0 0 512 512">
  <defs>
    <style>
      .cls-1 {
        fill: #fff;
      }
    </style>
  </defs>
  <path class="cls-1" d="M457.27,97.79c32.96,41.85,53.14,94.12,54.73,151.02-68.79-12.05-128.12-12.42-179.38-4.29-6.5-14.91-13.18-29.39-20.04-43.42,54.98-22.61,104.28-55.59,144.69-103.3Z"/>
  <path class="cls-1" d="M421.99,61.16c-36.1,43.82-81.42,73.99-132.7,94.51-32.83-60.82-66.59-111.51-93.57-148.51C215.1,2.42,235.28-.1,256.07-.1c63.29-.02,121.2,23.11,165.93,61.26Z"/>
  <path class="cls-1" d="M146,24.81c26.08,34.82,60.78,85.25,94.72,147.09-71.93,19.76-152.4,25.08-233.84,25.31C24.85,121.02,76.86,57.86,146,24.81Z"/>
  <path class="cls-1" d="M0,255.98l.21-8.28h1.38c91.25,0,181.85-5.98,263.08-29.91,6.06,12.32,12.01,24.97,17.84,37.98-106.87,31.33-173.5,101.66-219.16,168.57C23.95,379.33,0,320.4,0,255.98Z"/>
  <path class="cls-1" d="M100.68,459.33c43.23-65.11,103.48-129.54,201.51-156.6,22.9,58.68,41.58,122.72,51.47,189.98-30.09,12.49-63.02,19.39-97.56,19.39-58.43,0-112.31-19.68-155.43-52.77Z"/>
  <path class="cls-1" d="M400.76,467.19c-10.48-61.45-27.65-120.07-48.33-174.42,44.8-5.69,96.31-4.31,156.02,6.67-11.94,69.4-51.83,129.37-107.69,167.75Z"/>
</svg>