<?xml version="1.0" encoding="UTF-8"?>
<svg id="Layer_1" xmlns="http://www.w3.org/2000/svg" viewBox="0 0 512 512">
  <defs>
    <style>
      .cls-1 {
        fill: #fff;
      }
    </style>
  </defs>
  <path class="cls-1" d="M244.51,116.53c-14.56,13.83-28.95,27.5-43.82,41.62-19.82-16.81-35.64-41.86-61.78-48.63-41.25-9.96-80.4,25.69-75.69,65.79,4.17,35.87,38.9,55.5,60.76,81.17,63.06-60.99,123.58-124.67,187.79-184.39,15.32-12.6,33.34-19.75,52.71-23.89,76.75-17.09,154.45,50.97,147.03,129.4-1.19,48.09-34.86,80.41-68,110.74-14.66-13.97-29.25-27.87-44.12-42.04,16.78-20.76,42.7-35.85,48.69-63.45,8.5-36.23-19.25-73.02-55.62-74.47-41.93-4.3-63.62,37.87-92.09,61.17,43.82,43.97,87.18,87.48,130.75,131.2-49.55,50.94-100.23,100.7-150.12,151.31-21.1,20.87-30.62,17.99-50.66-1.93-65.33-65.21-130.51-130.58-195.76-195.88-12.37-12.38-21.67-26.79-27.85-43.07C-14.58,152.48,16.44,77.79,76.01,55.57c67.18-27.65,128.26,6.01,168.5,60.96ZM318.06,301.07c-1.14-82.09-121.4-78.48-123.47-3.31-.62,83.07,119.36,87.08,123.47,3.31ZM218.73,288.05c-5.57,15.12-.49,33.85,15.45,45,33.61,23.61,75.19-16.21,57.74-49.36-13.48,9.25-32.84-5.96-24.82-21.3-24.14-5.07-41.26,6.37-48.37,25.66Z"/>
  <path class="cls-1" d="M390.05,99.8c-.92-.23-1.85-.45-2.77-.68.92.23,1.85.45,2.77.68Z"/>
  <path class="cls-1" d="M419.06,111.83c-.21-.93-.43-1.86-.64-2.79.21.93.43,1.86.64,2.79Z"/>
  <path class="cls-1" d="M420.95,134.58c-.24-.93-.47-1.85-.71-2.78.24.93.47,1.85.71,2.78Z"/>
  <path class="cls-1" d="M420.25,166.09c.25-.72.5-1.44.75-2.16-.25.72-.5,1.44-.75,2.16Z"/>
  <path class="cls-1" d="M151.37,340.22c-.15-.75-.3-1.5-.45-2.24.15.75.3,1.5.45,2.24Z"/>
  <path class="cls-1" d="M407.07,110.55c-.2,0-.39,0-.59,0,.2-.09.4-.09.59,0Z"/>
</svg>