<?xml version="1.0" encoding="UTF-8"?>
<svg id="Layer_1" xmlns="http://www.w3.org/2000/svg" viewBox="0 0 512 512">
  <defs>
    <style>
      .cls-1 {
        fill: #fff;
      }
    </style>
  </defs>
  <path class="cls-1" d="M335.35,414.55v-158.05h-158.02v157.82h62.63v94.65H19.68v-94.33h62.22v-158.14H19.75v-94.87h62.34c0-5.67.02-10.73,0-15.78-.18-31.58,9.55-60.12,28.14-85.29,20.49-27.75,48.12-45.65,81.64-53.81,9.58-2.33,19.68-3.13,29.58-3.45,16.46-.55,32.96-.15,49.82-.15v94.79c-3.57,0-7.16-.06-10.76.01-14.08.28-28.18.21-42.23,1-15.19.85-26.06,9.05-34.16,21.62-8,12.42-7.97,26.1-7.08,40.75h252.6v253.05h62.69v94.65h-220.3v-94.45h63.33Z"/>
  <path class="cls-1" d="M428.78,50.5c.61,29.35-22.37,48.03-47.53,47.82-26.76-.23-46.61-20.73-46.74-47.89-.13-25.69,19.1-46.99,46.48-47.11,27.26-.12,48.76,20.22,47.8,47.18Z"/>
</svg>