<?xml version="1.0" encoding="UTF-8"?>
<svg id="Layer_1" xmlns="http://www.w3.org/2000/svg" viewBox="0 0 512 512">
  <defs>
    <style>
      .cls-1 {
        fill: #fff;
      }
    </style>
  </defs>
  <path class="cls-1" d="M506.58,7.24l-.42-2.71-2.72-.38c-65.06-9.01-115.54-3.45-158.83,17.48-42.57,20.59-78.3,56.14-112.36,111.85l-3.02-2.12c-16.07-11.3-34.72-13.85-52.51-7.18-19.81,7.42-35.47,25.51-40.94,47.28-8.87,20.03-17.75,40.45-26.33,60.21-8.12,18.69-16.52,38.01-24.89,56.96l-.94,2.13,4.48,5.2,2.68-1.67c14.21-8.87,28.44-18.19,42.21-27.2,7.15-4.68,14.3-9.36,21.5-14.01l.16-.11c1.52-.99,3.09-2.02,3.75-2.25.65.34,2.14,1.66,3.47,2.84l3.05,2.69,2.38-3.3c14.78-20.52,29.38-41.67,43.5-62.12,6.59-9.55,13.28-19.23,20.04-28.93-25.37,10.16-44.61,32.46-62.03,52.86,13.08-33.35,26.7-60.97,60.16-60.97,2.32,0,4.74.14,7.25.41,2.54-3.63,5.1-7.26,7.66-10.89l.78-1.1c4.95-6.99,9.94-13.95,14.95-20.83,19.59-27.07,41.8-57.76,73.34-76.49,3.13-1.9,9.06,5.14,13.39,10.29,3,3.57,5.85,6.96,8.72,8.99-52.53,38.47-93.26,85.8-121.09,140.69-5.96,10.42-11.92,21.06-17.69,31.34-7.16,12.78-14.57,26.01-22.03,38.89-4.72,8.15.02,12.23,3.99,14.6l2.42,1.44,2.02-1.95c8.5-8.22,16.21-21.28,24.36-35.09,13.41-22.72,27.27-46.21,45.42-50.17,7.04-1.53,14.36-.01,22.27,4.66l-118.19,120.06,14.64-21.56-7.74.7c-17.61,1.59-32.19,8.02-44.27,15.82l16.08-19.46-6.14-4.52-2.1,1.25c-27.58,16.44-46.23,38.6-55.62,66.02-.33-4.31-.3-8.39.86-12.14l.99-3.19-7.46-3.12-1.58,2.96c-16.59,31.1-33.16,62.23-49.73,93.37-10.72,20.14-21.44,40.28-32.16,60.4l-1.43,2.68,5.18,4.2,2.06-.93c32.33-14.54,64.74-30.28,96.08-45.51,17.14-8.33,34.86-16.94,52.33-25.23,5.31-2.49,10.84-4.81,16.2-7.06,6.99-2.93,14.22-5.97,21.18-9.46,41.15-21.03,44.99-70.86,27.86-108.23.32-.28.62-.53.86-.68.88.53,2.68,2.33,3.31,2.97l6.01,6.01c8.01,8.02,16.03,16.03,24.04,24.04,1.8,1.8,3.66,3.65,3.85,4.17-.07.69-1.56,2.93-3.07,5.23l-.12.2c-4.71,8.23-10.57,16.49-16.23,24.49-8.99,12.68-18.28,25.8-23.73,39.65l-3.35,8.53,8.32-3.84c22.99-10.62,46.72-20.83,69.66-30.71,21.52-9.26,43.77-18.84,65.35-28.72,16.5-6.98,28.15-21.34,31.95-39.39,3.71-17.6-.58-35.71-11.5-49.33,109.57-67.19,148.32-148.45,129.48-270.94ZM371.7,52.82c-4.79-1.47-9.16-6.43-13.76-11.66-1.97-2.24-3.98-4.53-6.1-6.6,29.07-15.16,62-22.25,100.53-21.78h.05c1.54.09,6.05.35,11.14.72-23.5,8.58-67.71,25.19-91.85,39.32Z"/>
</svg>