<?xml version="1.0" encoding="UTF-8"?>
<svg id="Layer_1" xmlns="http://www.w3.org/2000/svg" viewBox="0 0 512 512">
  <defs>
    <style>
      .cls-1 {
        fill: #fff;
      }
    </style>
  </defs>
  <path class="cls-1" d="M502.26,209.45h-241.33c0,32.86.08,65.49.12,98.32.19.19.39.38.58.57,45.58.3,91.13.01,136.72.11-4.34,31.62-24.9,59.09-50.66,77.21q5.28,4.25,0,0c-84.1,54.64-199.23,14.78-230.57-80.8-10.81-31.82-9.85-66.13.05-98.08,34.22-101.63,159.63-139.82,241.55-68.4,23.99-23.99,48.35-48.34,73.11-73.1C309.8-48.22,104.48-9.13,32.25,141.09c-36.37,70.89-37.63,158.71.02,229.42,70.07,147.28,276.75,190.05,397.55,79.7q-9.94-8.41,0,0c50.52-42.94,72.33-109.61,77.51-173.78.77-22.45-1.23-44.89-5.08-66.98Z"/>
  <path class="cls-1" d="M256.16,293.07c.13.12.25.25.38.37-.13-.12-.25-.25-.38-.37Z"/>
</svg>