<?xml version="1.0" encoding="UTF-8"?>
<svg id="Layer_1" xmlns="http://www.w3.org/2000/svg" viewBox="0 0 512 512">
  <defs>
    <style>
      .cls-1 {
        fill: #fff;
      }
    </style>
  </defs>
  <path class="cls-1" d="M117.03,357.09h-45.71v-204.8h69.49l12.8,85.94h1.83l9.14-85.94h69.49v204.8h-45.71v-122.51h-1.83l-16.46,122.51h-34.74l-18.29-122.51h0v122.51h0Z"/>
  <path class="cls-1" d="M252.34,150.46c7.31,0,58.51-1.83,85.94,1.83,21.94,1.83,32.91,20.11,34.74,42.06,1.83,40.23,1.83,80.46,1.83,120.69,0,3.66,0,9.14-1.83,14.63-3.66,16.46-12.8,25.6-34.74,27.43-27.43,1.83-54.86,1.83-80.46,1.83h-3.66v-208.46h-1.83ZM307.2,188.86v131.66c9.14,0,14.63-3.66,14.63-12.8v-107.89c0-9.14-3.66-12.8-14.63-10.97Z"/>
  <path class="cls-1" d="M0,357.09v-204.8h53.03v204.8H0Z"/>
  <path class="cls-1" d="M510.17,229.09c-1.83-14.63-10.97-21.94-25.6-25.6-14.63-1.83-29.26,0-42.06,12.8v-64h-51.2v204.8h47.54c1.83-3.66,1.83-7.31,3.66-9.14h1.83c1.83,1.83,3.66,3.66,5.49,5.49,12.8,9.14,27.43,10.97,42.06,5.49,12.8-5.49,18.29-16.46,18.29-29.26,0-14.63,1.83-31.09,1.83-47.54,0-18.29,0-36.57-1.83-53.03h0ZM458.97,320.51c0,3.66-3.66,7.31-7.31,7.31s-7.31-3.66-7.31-7.31v-78.63c0-3.66,3.66-7.31,7.31-7.31s7.31,3.66,7.31,7.31v78.63Z"/>
</svg>