<?xml version="1.0" encoding="UTF-8"?>
<svg id="Layer_1" xmlns="http://www.w3.org/2000/svg" viewBox="0 0 512 512">
  <defs>
    <style>
      .cls-1 {
        fill: #fff;
      }
    </style>
  </defs>
  <path class="cls-1" d="M257.97,124.09c-73.83-.39-133.99,59.14-134.38,132.96-.39,73.83,59.14,133.99,132.96,134.38,73.83.39,133.99-59.14,134.39-132.96.39-73.83-59.14-133.99-132.96-134.38ZM257.28,348.06c-49.03-.26-88.57-40.22-88.31-89.25.26-49.03,40.22-88.57,89.25-88.31,49.03.26,88.57,40.22,88.31,89.25-.26,49.03-40.22,88.57-89.25,88.31Z"/>
  <path class="cls-1" d="M372.01,95.48c-13.57,11.57-15.19,31.94-3.63,45.51,11.57,13.57,31.94,15.19,45.51,3.63,13.57-11.57,15.19-31.94,3.63-45.51-11.57-13.57-31.94-15.19-45.51-3.63Z"/>
  <path class="cls-1" d="M365.21,0h-218.42C64.75,0-1.77,66.51-1.77,148.56v214.89c0,82.05,66.51,148.56,148.56,148.56h218.42c82.05,0,148.56-66.51,148.56-148.56v-214.89C513.77,66.51,447.25,0,365.21,0ZM465.51,362.19c0,56.27-45.62,101.89-101.89,101.89h-216.84c-56.27,0-101.89-45.62-101.89-101.89v-213.96c0-56.27,45.62-101.89,101.89-101.89h216.84c56.27,0,101.89,45.62,101.89,101.89v213.96Z"/>
</svg>