<?xml version="1.0" encoding="UTF-8"?>
<svg id="Layer_1" xmlns="http://www.w3.org/2000/svg" viewBox="0 0 512 512">
  <defs>
    <style>
      .cls-1 {
        fill: #fff;
      }
    </style>
  </defs>
  <path class="cls-1" d="M410.95,384.5c-28.12,0-52.08-6.94-69.3-20.07-17.64-13.45-27.47-32.74-28.42-55.78l.26-4.98,5.81-.13h44.56l.52,4.32c2.31,19.19,21.96,32.08,48.9,32.08s43.9-12,43.9-29.18c0-12.22-6.56-21.91-38.58-29.47l-30.93-7.28c-46.18-10.59-68.64-33.53-68.64-70.13,0-44.68,38.55-75.89,93.76-75.89s92.19,30.25,93.26,75.28l.12,5.02h-50.22l-.4-4.47c-1.74-19.58-17.85-31.26-43.09-31.26s-40.26,11.33-40.26,28.18c0,11.05,6.39,19.92,37.59,27.32l27.43,6.28c50.35,11.51,72.8,33.55,72.8,71.46,0,23.8-9.44,43.77-27.3,57.76-17.49,13.7-42.3,20.94-71.75,20.94Z"/>
  <rect class="cls-1" x="4.32" y="195.34" width="51.01" height="185.19"/>
  <path class="cls-1" d="M273.84,162.82c-20.91-22.78-50.74-34.82-86.26-34.82s-65.47,12.04-86.4,34.82c-20.83,22.67-31.84,55.01-31.84,93.51s11.01,70.8,31.84,93.43c20.92,22.72,50.79,34.74,86.4,34.74s65.36-12.01,86.26-34.74c20.82-22.64,31.82-54.95,31.82-93.43s-11-70.83-31.82-93.51ZM187.58,338.28c-39.94,0-64.74-31.4-64.74-81.95s24.81-82.12,64.74-82.12,64.75,31.47,64.75,82.12-24.81,81.95-64.75,81.95Z"/>
  <path class="cls-1" d="M29.74,182.15c-15.3,0-27.74-12.22-27.74-27.24s12.19-27.41,27.74-27.41,27.9,12.04,27.9,27.41-12.26,27.24-27.9,27.24Z"/>
</svg>