<?xml version="1.0" encoding="UTF-8"?>
<svg id="Layer_1" xmlns="http://www.w3.org/2000/svg" viewBox="0 0 512 512">
  <defs>
    <style>
      .cls-1 {
        fill: #fff;
      }
    </style>
  </defs>
  <path class="cls-1" d="M470.76,102.22c-15.46-24.7-43.08-40.14-73.87-41.32-29.88-1.14-57.99,11.02-76.1,32.75C305.53,37.7,250.42-2.76,193.02.75h-.06c-51.71,4.35-90.88,29.97-110.3,72.15-20.36,44.21-15.05,98.42,13.51,138.09,24.12,33.5,60.82,51.36,104.58,51.36,6.04,0,12.23-.34,18.52-1.03,20.32-1.33,43.11-2.78,66-4.19,15.73-1.5,32.33-2.29,48.38-3.05,25.68-1.22,52.23-2.49,77.66-6.63,30.1-4.61,55.53-24.96,68.01-54.44,13.08-30.87,9.84-64.86-8.58-90.8ZM221.85,199.01c-27.87,2.21-57.93-15.44-62.21-59.88-2.27-44.47,27.39-70.32,57.87-72.88,27.86-2.34,58.22,14.93,63.31,58.66,2.84,44.86-28.27,71.66-58.98,74.11ZM431.83,188.57c-20.25,17.14-39.31,10.64-50.41-1.17-14.95-15.91-19.6-45.06-1.04-64.39,9.04-9.31,18.74-14.08,28.46-14.08,2.74,0,5.49.38,8.22,1.15,13.6,3.82,25.24,17.39,28.97,33.78,3.88,17.08-1.29,33.37-14.19,44.72Z"/>
  <path class="cls-1" d="M294.42,481.07c-16.56,0-33.72-3.62-54.52-13.78l-2.61-1.27,1.65-2.38c4.24-6.11,9.08-11.95,13.76-17.6,7.37-8.89,14.98-18.09,20.17-28.28.03-4.39.37-8.93.74-13.72,1.15-15.12,2.34-30.76-6.76-41.66-1.3-1.37-2.56-2.68-3.92-3.79l-.21-.19c-2.62-2.66-5.38-5.28-8.05-7.82-2.64-2.51-5.37-5.1-7.98-7.75l-2.46-2.39c-1.24-1.22-2.5-2.39-3.75-3.56-1.62-1.51-3.29-3.06-4.88-4.69l-1.96-1.92c-1.2-1.17-2.39-2.34-3.62-3.49l-.78-.76c-1.83-1.76-3.67-3.52-5.52-5.28-4.08-3.89-8.3-7.91-12.35-11.98l-1.02-1.04c-.66-.92-1.95-1.94-3.21-2.92-2.66-2.09-5.68-4.45-5.74-8.08v-.41s.12-.39.12-.39c4.65-14.38,18.98-19.48,31.01-19.48.12,0,.24,0,.36,0,19.1-1.24,38.56-3.25,57.38-5.19,48.9-5.04,99.47-10.25,149.41-2.72,9.89-.18,19.19,3.67,24.97,10.21,5.06,5.73,7.14,12.99,5.99,20.99-.33,1.8-.16,4.01.02,6.34.4,5.08.89,11.4-4.36,14.74l-.39.25-.45.09c-14.02,2.87-28.36,5.43-42.22,7.91-9.64,1.72-19.61,3.5-29.36,5.37-2.32.41-4.73.76-7.28,1.12-18.95,2.72-32.35,5.89-31.95,21.99,1.09,8.38.46,17.75-.15,26.82-1,14.93-1.95,29.03,5.1,34.59,4.84,3.83,13.48,3.73,26.38-.29l.19-.05c2.52-.58,4.91-1.02,7.01-1.4,5.31-.98,9.51-1.75,11.56-3.89,1.23-1.29,2.66-3.94,1.39-12.09-4.39-.42-9.31.99-14.48,2.48-4.82,1.38-9.85,2.77-14.67,2.79l-.44-.04c-6.33-1.19-6.64-14.58-4.96-40.52.18-2.86.33-5.12.35-6.39l.02-.96.65-.7c4.18-4.47,10.5-5.16,16.08-5.77,2.62-.29,5.09-.56,7.24-1.16l.18-.04c15.91-3.2,32.06-6.1,47.68-8.91l.24-.04h.24s.05,0,.08,0c1.62,0,4.68-.8,7.65-1.57,7.5-1.95,15.26-3.97,18.16.63l.41.65-.03.77c-.37,10.8-.11,21.95.14,32.74.43,18.2.87,37.02-1.69,55.14l-.14.54c-7.73,20.27-41.26,25.8-70.85,30.67-12.69,2.09-24.67,4.06-32.81,6.98l-.3.09c-6.13,1.35-11.9,2.72-17.48,4.03-19.25,4.55-35.79,8.45-52.98,8.45Z"/>
  <path class="cls-1" d="M257.02,377.11l-.12-.47-.28-.39c-4.12-5.76-9.52-10.42-14.74-14.93-3.38-2.92-6.88-5.95-9.91-9.18l-.29-.26c-7.11-5.53-13.82-12.28-20.3-18.8-12.38-12.45-25.19-25.33-42.05-31.41l-.45-.12c-10.51-1.68-21.27-4.08-32.66-6.63-30.13-6.74-61.3-13.71-89.79-7.16l-.35.08-.31.17c-20.13,11.3-20.2,35.15-20.26,56.2-.02,7.07-.04,13.75-.76,19.74l-.02.19v.2c.32,8.5.24,17.23.17,25.66-.19,22.64-.39,46.06,6.71,68.28l.21.47c15.8,27.76,61.69,38.03,98.56,46.28,7.79,1.74,15.15,3.39,21.45,5.06,3.66.94,7.1,1.37,10.34,1.37,20.2,0,32.64-16.78,43.79-31.83l.11-.16c6.73-8.12,13.49-16.43,20.03-24.46,6.99-8.59,14.21-17.47,21.4-26.12,14.95-13.59,13.43-35.64,9.52-51.77ZM159.12,435.35c-.23,2.02-.33,4.28-.44,6.68-.33,7.14-.74,16.02-4.91,19.2-1.85,1.42-4.47,1.72-7.98.93-4.32-.96-9.83-1.87-15.65-2.82-23.19-3.81-58.18-9.56-64.2-27.45-2.37-21.15-3.1-44.8-2.28-74.41.35-2.56.39-5.63.43-8.87.09-6.99.2-15.69,4.01-18.84,1.62-1.34,3.94-1.71,7.11-1.14l.33.04c21.25.95,42.36,5.44,60.22,9.69l.17.03c19.59,3.22,23.08,12.18,23.18,29.83v.11c1.19,24.17,1.19,46.76.02,67.01Z"/>
</svg>