<?xml version="1.0" encoding="UTF-8"?>
<svg id="Layer_1" xmlns="http://www.w3.org/2000/svg" viewBox="0 0 512 512">
  <defs>
    <style>
      .cls-1 {
        fill: #fff;
      }
    </style>
  </defs>
  <path class="cls-1" d="M114.17,302.87c-.03.11-.06.21-.08.32-.06-.07-.11-.14-.17-.21l.09-.13s.16.02.16.02Z"/>
  <path class="cls-1" d="M511.42,126.48c.77-2.32.04-5.09-2.3-6.52l-101.64-62.41c-3.16-1.94-7.12-1.92-10.26.06l-100.86,63.45c-25.2,15.86-57.06,15.62-82.03-.6l-96.31-62.56c-4.37-2.84-9.94-2.89-14.37-.14L2.96,120.4c-2.9,1.8-3.65,5.4-2.33,8.17L.05,316.85c-.01,3.33,2.84,7.53,6.36,9.37l246.47,128.93c.54.17,1.03.39,1.49.66.03,0,.05.01.08.02.34.09.7.19,1.03.31.1.03.15.06.21.08.1.01.2.03.3.04.02,0,.03,0,.05,0,.23-.04.46-.06.69-.09.35-.13.71-.24,1.09-.31l247.81-129.64c3.52-1.84,6.37-6.04,6.36-9.37l-.58-190.37Z"/>
</svg>