<?xml version="1.0" encoding="UTF-8"?>
<svg id="Dimensions" xmlns="http://www.w3.org/2000/svg" viewBox="0 0 512 512">
  <defs>
    <style>
      .cls-1 {
        fill: #fff;
      }
    </style>
  </defs>
  <path class="cls-1" d="M108.13,288.86c8.98-2.03,17.27-6.38,24.03-12.62,2.35-2.15,4.46-4.26,6.33-6.41.55,1.44,1.14,2.74,1.72,3.87,2.5,4.57,6.06,6.52,10.59,5.9,3.72-.51,6.33-1.88,7.78-4.06,1.48-2.23,2.5-6.21,3.05-12.04.74-6.94,1.93-13.83,3.56-20.63,1.68-7.07,3.6-12.94,5.78-17.67,2.19-4.69,4.18-7.15,5.98-7.39,1.33-.19,2.11.71,2.39,2.62.31,2.42.51,7.5.59,15.32-.04,8.79.23,15.47.86,20.05.74,5.39,2.35,9.85,4.81,13.36,2.5,3.52,5.71,5,9.69,4.5,3.83-.51,6.49-1.84,7.97-4.03,1.48-2.15,2.5-6.22,3.05-12.15.82-7.58,2.23-14.85,4.22-21.84,2-6.99,4.15-12.7,6.49-17.11,2.35-4.41,4.3-6.72,5.86-6.92,1.33-.2,2.11.7,2.39,2.61.39,2.89.31,8.21-.23,15.98-.51,8.87-.55,15.01-.12,18.37.9,6.72,3.16,11.65,6.76,14.77,3.6,3.12,8.44,4.26,14.58,3.44,7.58-1.01,14.03-3.94,19.43-8.83,2.42-2.19,4.69-4.61,6.92-7.22,2.59,3.54,5.85,6.53,9.61,8.79,5.31,3.24,11.61,4.65,18.88,4.26,8.59-.47,16.1-3.95,22.55-10.39,6.46-6.49,10.56-14.85,12.27-25.13,4.93-.47,9.61-1.32,14.03-2.46-.04,1.76-.08,3.52-.08,5.28,0,10.67.94,18.4,2.81,23.25,1.88,4.84,5.12,7.27,9.73,7.27,3.75,0,6.52-1.02,8.29-3.01,1.76-2,3.28-5.86,4.61-11.53,1.79-7.39,4.21-14.42,7.19-21.1,2.97-6.64,5.86-12.04,8.71-16.1,2.86-4.06,5.05-6.09,6.65-6.09,1.32,0,1.99.98,1.99,2.89,0,2.65-.74,8.83-2.19,18.52-1.68,11.14-2.54,19.15-2.54,23.99,0,4.1.9,7.19,2.74,9.26,1.83,2.07,4.73,3.09,8.71,3.09,4.22,0,7.31-1.01,9.19-3.01,1.88-1.99,2.81-5.31,2.81-9.89,0-8.12.35-15.47,1.09-22.07.74-6.6,1.68-13.6,2.89-20.98,1.33-8.72,2-14.66,2-17.82,0-3.87-1.02-6.8-3.01-8.83-2-1.99-4.92-3.01-8.83-3.01s-8.41,1.41-13.17,4.18c-4.77,2.77-9.65,7.46-14.62,13.99-4.96,6.53-9.46,15.04-13.45,25.44.47-5.32,1.09-9.81,1.79-13.44.74-3.64,1.68-7.89,2.9-12.74,1.79-6.79,2.74-11.13,2.74-13.09,0-1.68-.47-2.86-1.45-3.44-.97-.59-2.65-.9-5.08-.9-4.5,0-7.97.82-10.44,2.46-2.5,1.64-4.26,4.22-5.35,7.74-2.03,6.42-3.58,12.97-4.65,19.61-5.87,1.68-11.06,2.81-15.6,3.36-1.49-9.26-5.2-16.92-11.18-22.97-5.98-6.06-13.56-8.83-22.74-8.32-7.29.33-14.32,2.83-20.17,7.19-5.94,4.38-10.47,10.27-13.6,17.66-3.13,7.39-4.42,15.67-3.95,24.85.12,2.02.36,3.98.71,5.9-1.95,2.81-3.72,5.12-5.24,6.88-2.89,3.4-5.55,5.24-7.97,5.55-3.48.47-5.55-1.68-6.18-6.48-.47-3.36-.23-10.43.63-21.18,1.01-12.58,1.17-21.25.55-25.9-1.06-7.81-5.47-11.17-13.29-10.12-6.37.86-12.74,5.12-19.19,12.86-6.41,7.7-11.65,19.34-15.67,34.93.08-2.23.27-5.55.66-10,.94-10.39,1.13-17.51.62-21.34-.55-3.94-1.79-6.79-3.79-8.48-1.99-1.68-5.12-2.26-9.3-1.68-4.21.55-8.48,2.77-12.78,6.57-4.3,3.83-8.29,9.26-11.92,16.37-3.63,7.07-6.45,15.51-8.41,25.32-.24-5.36-.24-9.85,0-13.48.24-3.63.63-7.93,1.21-12.9.9-6.95,1.21-11.41.97-13.33-.24-1.68-.86-2.77-1.91-3.24-1.05-.47-2.77-.55-5.16-.24-4.46.59-7.78,1.88-10.05,3.83-2.23,1.95-3.67,4.73-4.3,8.36-2.38,13.64-2.69,27.7-1.05,42.16-3.07,4.88-6.81,9.29-11.1,13.13-5.94,5.27-11.57,8.51-16.88,9.77-8.28,1.91-14.5.46-18.72-4.26,13.13-6.64,21.97-13.51,26.46-20.71,4.49-7.19,5.82-14.85,3.95-23.02-1.6-6.95-4.93-11.99-10-15.12-5.08-3.12-11.02-3.91-17.86-2.3-7.66,1.76-14.07,5.43-19.19,10.94-5.12,5.55-8.6,12.19-10.4,20-1.79,7.82-1.76,15.79.12,23.96.27,1.25.62,2.42.97,3.59-6.29,4.24-12.69,8.31-19.19,12.23-7.9,4.73-10.67,6.09-12.62,5-3.6-2.03-1.95-11.13-.43-19.3,9.38-50.25,10.79-60.52,5.36-69.39-1.14-1.88-6.49-10.52-15.36-11.37-6.49-.62-13.41,2.97-16.85,8.24-5.51,8.44,1.21,16.14,4.7,37.24,1.95,11.92,2.11,24.5,2.02,49.58-.03,14.5-.66,23.33,5.47,28.09,6.29,4.89,15.76,2.39,16.69,2.15,6.38-1.76,9.46-5.82,15.72-12.15,4.65-4.73,11.57-11.22,20.99-18.33,3.21,5.24,6.84,8.13,9.18,9.69,11.69,7.77,25.52,4.76,31.19,3.44l.08-.08ZM291.12,204.7c2.97-4.85,6.84-7.39,11.68-7.66h.9c-.27,1.91-.35,3.87-.24,5.78.24,4.61,1.49,8.91,3.72,12.89,2.14,3.93,5.3,7.21,9.14,9.49-.66,5.98-2.3,10.63-4.96,13.91-2.66,3.32-5.94,5.04-9.81,5.27-3.51.2-6.64-1.41-9.46-4.77-2.77-3.36-4.38-8.36-4.73-15.05-.47-8.48.78-15.12,3.75-19.92v.04ZM81.48,233.46c1.83-5.78,4.96-9.14,9.3-10.16,2.11-.51,3.95-.19,5.51.86,1.56,1.06,2.58,2.74,3.09,4.96,1.02,4.38-.12,8.68-3.36,12.9-3.25,4.22-8.17,7.97-14.77,11.22l-.08-.35c-1.64-7.19-1.57-13.68.27-19.46l.04.04h0ZM416.89,301.41c-32.44-1.39-64.92-1.31-97.35.23-29.78,1.37-59.57,3.83-89.2,7.35-22.51,2.7-44.98,6.02-67.3,10.04-15.16,2.74-30.25,5.74-45.25,9.22-7.62,1.76-15.36,3.36-22.87,5.62-.08,0-.15.04-.27.08-2.85.78-6.52,3.4-6.99,6.6-.51,3.32,2.27,6.6,4.77,8.36,8.09,5.71,18.96,6.84,28.33,4.22,1.29-.35,2.58-.7,3.87-1.01l4.57-1.18c.86-.19,1.72-.43,2.58-.62,13.92-3.28,27.91-6.17,41.98-8.79,21.39-3.98,42.9-7.34,64.48-10.08,13.06-1.69,26.11-3.13,39.2-4.34l21.11-1.8c.78-.04,1.52-.11,2.3-.15,1.44-.08,2.85-.2,4.3-.27l11.33-.71c31.85-1.79,63.74-2.23,95.64-1.25,4.14.12,8.29.27,12.39.47,3.87.16,9.42-.78,12.7-3.09,2.42-1.68,4.45-4.77,3.25-7.86-3.36-8.51-15.71-10.74-23.57-11.05ZM490.74,210.36c7.2-3.44,12.47-7.27,15.83-11.57,3.36-4.26,5.16-9.18,5.4-14.77.35-7.62-2.5-13.83-8.52-18.56-6.02-4.77-14.19-7.39-24.47-7.86-12.47-.59-22.44,1.72-29.98,6.92-7.5,5.15-11.49,12.58-11.92,22.27-.21,4.48.75,8.94,2.78,12.94,2.07,4.14,5.2,7.77,9.41,10.9-7.18,3.44-12.46,7.27-15.79,11.45-3.26,4-5.15,8.95-5.39,14.1-.39,8.24,2.62,14.81,8.99,19.7,6.38,4.89,15.44,7.62,27.2,8.16,8.37.39,15.71-.55,22.12-2.81,6.41-2.26,11.45-5.59,15.09-10.04,3.67-4.45,5.63-9.69,5.9-15.75.47-10.16-5.08-18.56-16.69-25.13l.04.04ZM479.53,244.24c-3.36,1.79-7.89,2.54-13.55,2.3-5.08-.23-9.07-1.37-11.92-3.35-2.89-2-4.26-4.73-4.1-8.09.16-3.16,1.37-6.02,3.67-8.56,2.31-2.58,6.29-5,11.96-7.27,7.46,3.75,12.59,6.88,15.28,9.41,2.74,2.54,4.02,5.16,3.91,7.82-.16,3.39-1.91,5.97-5.27,7.77l.03-.03ZM485.94,193.99c-2.62,2.54-7.08,5.2-13.37,7.93-8.99-4.65-13.36-9.69-13.13-15.17.2-3.98,1.84-6.99,4.97-8.94,3.12-1.99,7.23-2.86,12.31-2.62,9.18.43,13.64,3.95,13.32,10.63-.11,2.89-1.48,5.62-4.1,8.17Z"/>
</svg>