<?xml version="1.0" encoding="UTF-8"?>
<svg id="Layer_1" xmlns="http://www.w3.org/2000/svg" viewBox="0 0 512 512">
  <defs>
    <style>
      .cls-1 {
        fill: #fff;
      }
    </style>
  </defs>
  <g>
    <path class="cls-1" d="M320.84,38.06c21.72-4.54,86.42-5.48,127.09,27.87,9.85,8.08,12.5,12.46,7.59,21.83-1.59,1.39-3.28,2.68-4.77,4.17-74.35,74.22-148.69,148.44-223,222.7-27.33,27.31-54.56,54.71-81.84,82.08-11.05,7.23-11.46,7.67-20.99-1.22-12.93-12.06-25-24.41-37.45-37.54-18.4-19.4-38.46-47.45-49.07-63.54,0-1.06,0-2.13,0-3.19,4.44-5.84,8.88-11.68,13.33-17.52,33.31-33.08,66.7-66.08,99.9-99.27,12.77-12.77,24.92-26.15,37.69-38.92,19.7-19.71,39.68-39.13,59.54-58.68,4.89-4.32,9.32-9.36,14.76-12.81,10.82-6.86,22.2-12.85,33.35-19.19,7.96-2.25,15.93-4.51,23.89-6.76Z"/>
    <path class="cls-1" d="M274.42,472.25c-9.27,3.59-18.45,7.75-28.79,4.53-5.19-2.27-10.57-4.26-15.5-6.92-24.39-13.17-45.02-26.92-67.1-42.9-11.05-7.42-11.16-10.41-5.44-20.44,15.73-15.54,31.52-31.02,47.18-46.62,61.18-60.98,122.36-121.98,183.47-183.03,24.7-24.67,49.23-49.51,73.84-74.27,10.12-7.71,15.74-6.95,22.61,3.69,7.24,11.23,20.5,39.05,26.13,64.23,6.45,28.79-15.31,82.27-21.78,94.3-14.97,27.84-68.46,123.13-214.63,207.44Z"/>
    <path class="cls-1" d="M5.06,227.17c-7.53-27.32-6.28-54.5,1.28-81.58,4.63-22.67,38.79-71.98,73.61-90.81,13.14-7.1,56.68-21.29,77.74-20.7,19.25.54,49.22,9.89,67.22,17.18,7.14,2.89,11.02,7.77,9.27,15.87-3,3.29-5.88,6.71-9.02,9.86-33.84,33.86-67.65,67.76-101.6,101.5-29.84,29.65-59.85,59.13-89.79,88.69-4.42,4-12.15,2.71-15.91-6.51-6.23-11.09-10.1-23.01-12.79-33.49Z"/>
  </g>
  <path class="cls-1" d="M94.56,280.81c-.08-.08-.17-.16-.25-.24.11.05.2.13.25.24Z"/>
</svg>