<?xml version="1.0" encoding="UTF-8"?>
<svg id="Layer_1" xmlns="http://www.w3.org/2000/svg" viewBox="0 0 512 512">
  <defs>
    <style>
      .cls-1 {
        fill: #fff;
      }
    </style>
  </defs>
  <path class="cls-1" d="M114.6,512H8.45V170.16h106.15v341.84ZM61.47,123.53C27.52,123.53-.01,95.41-.01,61.47,0,27.52,27.52,0,61.48,0c33.95,0,61.46,27.52,61.47,61.47,0,33.94-27.54,62.06-61.48,62.06ZM511.9,512h-105.92v-166.41c0-39.66-.8-90.52-55.19-90.52s-63.65,43.09-63.65,87.66v169.26h-106.04V170.16h101.81v46.63h1.49c14.17-26.86,48.79-55.2,100.44-55.2,107.43,0,127.18,70.75,127.18,162.64v187.78h-.11Z"/>
</svg>