<?xml version="1.0" encoding="UTF-8"?>
<svg id="Dimensions" xmlns="http://www.w3.org/2000/svg" viewBox="0 0 512 512">
  <defs>
    <style>
      .cls-1 {
        fill: #fff;
      }
    </style>
  </defs>
  <path class="cls-1" d="M386.75,216.97c-6.2-12.1-11.68-17.91-21.25-25.82-7.77-6.6-20.99-10.45-31.99-11.57-11.07-1.13-21.2,1.64-34.99,9.06-26.44,17-45.08,75.17-57.14,95.5-2.89-4.51-43.1-82.5-48.31-89.56-23.3-31.83-75.17-31.84-97.24,2.89-2.01,3.16-55.91,112.94-57.19,116.71,57.26-62.02,89.23-4.54,110.32,38.57,12.33,25.21,25.38,46.47,28.36,52.18,5.7,10.94,15.87,34.58,39.64,42.98,24.32,8.59,48.19,3.13,65.16-16.02,22.21-25.06,32.67-63.3,47.49-91.37h0s0,0,0,0h0c16.17,29.16,32.28,59.96,48.28,89.28,15.65,28.69,35.81,40.81,74.66,37.21,17.93-1.66,49.44-16.63,59.45-21.55-34.19-26.93-92.07-158.05-125.25-228.5Z"/>
  <path class="cls-1" d="M82.02,351.03c-30.59-12.41-65.37,2.52-77.69,33.35-12.31,30.83,2.5,65.87,33.1,78.28,30.59,12.41,65.37-2.52,77.69-33.35,12.31-30.83-2.5-65.87-33.09-78.28Z"/>
  <path class="cls-1" d="M321.03,147.18c24.77,10.05,52.94-2.04,62.91-27,9.97-24.96-2.03-53.34-26.8-63.39-24.77-10.05-52.94,2.04-62.91,27-9.97,24.96,2.03,53.34,26.8,63.39Z"/>
  <path class="cls-1" d="M134.56,138.3c24.77,10.05,52.94-2.04,62.91-27,9.97-24.96-2.03-53.34-26.8-63.39s-52.94,2.04-62.91,27c-9.97,24.96,2.03,53.34,26.8,63.39Z"/>
</svg>