<?xml version="1.0" encoding="UTF-8"?>
<svg id="Layer_1" xmlns="http://www.w3.org/2000/svg" viewBox="0 0 512 512">
  <defs>
    <style>
      .cls-1 {
        fill: #fff;
      }
    </style>
  </defs>
  <path class="cls-1" d="M138.87,401.39c-34.87-.88-68.49-14.71-95.99-42.29C12.5,328.62-1.83,291.37.19,248.51c1.77-37.63,16.47-70.11,43.44-96.6,27.14-26.65,59.91-40.75,98-41.29,40.71-.57,76.06,13.35,104.83,42.25,30.06,30.2,43.99,67.2,42.22,109.63-1.62,38.86-16.69,72.21-44.93,99.04-28.12,26.71-61.99,39.64-104.88,39.84ZM351.7,126.34c-11.34,7.4-19.4,17.79-25.87,29.4-8.12,14.58-13.97,30.1-17.12,46.52-2,10.43-3.72,20.94-5.1,31.47-.82,6.23-.85,12.58-1.03,18.88-.09,3.3.25,6.62.45,9.93.47,7.57.75,15.16,1.53,22.7.69,6.74,1.64,13.48,3.02,20.11,3.02,14.47,7.35,28.55,13.75,41.93,6.02,12.6,13.36,24.27,24.11,33.43,9.47,8.07,19.97,13.14,32.98,11.84,7.31-.73,13.84-3.11,19.89-6.96,9.53-6.07,16.52-14.54,22.65-23.93,8.24-12.61,13.86-26.38,17.68-40.78,3.06-11.55,5.17-23.41,6.93-35.25,1.27-8.61,1.75-17.4,1.72-26.11-.04-10.25-.69-20.53-1.69-30.74-.86-8.81-2.15-17.62-4.01-26.27-2.69-12.47-6.46-24.64-11.88-36.29-6.27-13.48-13.92-25.92-25.4-35.62-8.46-7.14-18-11.61-30.24-11.25-7.75-.59-15.32,2.39-22.38,7ZM463.76,311.15c.37,2.45.77,4.9,1.1,7.36.69,5.25,1.08,10.56,2.08,15.75,1.36,7.07,2.95,14.12,4.84,21.06,1.8,6.59,4.1,13.05,8.1,18.73,4.12,5.87,9.18,6.05,13.24.55,2.3-3.13,4.18-6.73,5.53-10.39,6.35-17.13,8.72-35.11,10.83-53.12.63-5.42,1.07-10.86,1.43-16.3.43-6.53.88-13.07.96-19.62.15-12.58.22-25.17-.02-37.74-.14-7.49-.92-14.96-1.41-22.44-.32-4.82-.44-9.66-.99-14.45-.81-7.05-1.7-14.11-2.99-21.08-1.53-8.2-3.39-16.35-5.38-24.46-1.51-6.16-3.65-12.12-7.46-17.33-1.89-2.59-4.07-4.42-7.71-4.19-2.92.18-4.35,2.06-5.74,3.92-4.98,6.66-7.32,14.52-9.35,22.41-2.86,11.11-4.83,22.4-5.99,33.82-.75,7.33-1.73,14.64-2.4,21.98-.51,5.62-.79,11.28-.99,16.92-.26,7.39-.44,14.79-.48,22.18-.02,4.37.33,8.74.45,13.12.19,6.91.31,13.81.51,20.72.08,2.74.24,5.48.51,8.21.46,4.79,1.03,9.56,1.55,14.35l-.2.03Z"/>
</svg>