<?xml version="1.0" encoding="UTF-8"?>
<svg id="Layer_1" xmlns="http://www.w3.org/2000/svg" viewBox="0 0 512 512">
  <defs>
    <style>
      .cls-1 {
        fill: #fff;
      }
    </style>
  </defs>
  <path class="cls-1" d="M466.21,148.83l-.67-.65v-50.97h-28.65c-4.66,0-9.33,0-13.99.65h-.67l-.67-.65c-39.31-49.66-101.27-79.72-165.24-79.72s-126.59,30.06-165.24,80.38l-.67.65h-.67c-4.66-.65-9.33-.65-13.99-.65h-29.32v50.97l-.67.65C18.47,161.9.48,189.35.48,219.41s17.99,57.51,45.31,69.92h1.33v1.31c.67,112.4,94.61,203.89,209.21,203.89s208.55-91.49,209.21-203.89v-1.31l.67-.65c27.32-13.07,45.31-40.52,45.31-69.92s-17.99-57.51-45.31-69.92ZM145.73,114.19c29.32-28.75,69.29-45.09,110.6-45.09s81.29,16.34,110.6,45.09l1.33,1.31-2,1.31c-8,4.57-15.33,9.15-22.65,14.38l-.67.65-.67-.65c-19.32-9.8-49.97-20.91-85.28-20.91s-65.96,11.11-85.28,20.91l-.67.65-.67-.65c-7.33-5.23-15.32-10.46-22.65-14.38l-4-1.31,2-1.31ZM408.91,288.67h-.67c0,82.34-68.63,149.65-152.58,149.65s-151.91-67.31-151.91-149.65v-129.39l2,.65c26.65,6.53,51.97,35.29,57.97,42.48,6.66-7.19,37.98-35.29,92.61-35.29s85.95,28.75,92.61,35.29c6-7.19,30.65-35.94,57.97-42.48l2-.65v129.39Z"/>
</svg>