<?xml version="1.0" encoding="UTF-8"?>
<svg id="Layer_1" xmlns="http://www.w3.org/2000/svg" viewBox="0 0 512 512">
  <defs>
    <style>
      .cls-1 {
        fill: #fff;
      }
    </style>
  </defs>
  <path class="cls-1" d="M170.94,85.4c22.34,0,44.46,4.41,65.1,12.98,20.64,8.57,39.39,21.14,55.19,36.98,15.8,15.84,28.32,34.64,36.88,55.35,8.55,20.7,12.95,42.89,12.95,65.29,0,69-41.45,131.21-105.02,157.61-63.57,26.4-136.74,11.81-185.39-36.98C2,327.84-12.56,254.46,13.77,190.71c26.33-63.75,88.36-105.31,157.17-105.31ZM170.94,307.17c6.7,0,13.34-1.31,19.54-3.87s11.82-6.34,16.57-11.09c4.74-4.76,8.5-10.4,11.06-16.61,2.56-6.22,3.88-12.88,3.87-19.6,0-20.7-12.44-39.36-31.5-47.28-19.07-7.92-41.02-3.54-55.62,11.09-14.59,14.64-18.96,36.65-11.06,55.77,7.9,19.13,26.51,31.59,47.15,31.59h0Z"/>
  <path class="cls-1" d="M362.15,213.35c43.22,12.47,94.24,0,94.24,0-14.8,64.83-61.76,105.43-129.47,110.37-6.53,15.19-15.23,29.36-25.84,42.04-10.6,12.67-22.99,23.73-36.78,32.83-13.79,9.09-28.82,16.12-44.64,20.86-15.81,4.74-32.23,7.14-48.73,7.14l51.04-162.66c52.46-167.2,79.36-178.52,203.78-178.52h85.43c-14.29,63.12-63.54,111.34-149.02,127.94h0Z"/>
</svg>