<?xml version="1.0" encoding="UTF-8"?>
<svg id="Layer_1" xmlns="http://www.w3.org/2000/svg" viewBox="0 0 512 512">
  <defs>
    <style>
      .cls-1 {
        fill: #fff;
      }
    </style>
  </defs>
  <path class="cls-1" d="M127.23,94.28c23.48,29.54,37.12,66.66,37.12,107.56,0,34.84-10.6,67.42-28.03,94.69H10.58L127.23,94.28h0Z"/>
  <path class="cls-1" d="M511.28,341.22c0,1.51-.76,3.03-2.27,3.79-8.33,3.79-36.36,16.66-48.48,33.33-30.3,41.66-53.02,108.32-104.53,108.32h-215.88C63.6,486.65-.03,426.06.73,345.76c0-2.27,1.51-3.79,3.79-3.79h101.5c3.79,0,6.06,3.03,6.06,6.06v19.69c0,10.6,8.33,18.94,18.94,18.94h77.26v-44.69h-53.02c30.3-38.63,48.48-87.11,48.48-140.13,0-59.08-22.72-112.87-59.84-153.01,22.72,2.27,43.93,6.82,63.63,12.88v-12.88c0-12.88,10.6-23.48,23.48-23.48s23.48,10.6,23.48,23.48v30.3c71.96,33.33,119.68,89.38,119.68,153.01,0,37.12-15.91,71.96-43.93,100.75-5.3,5.3-12.88,8.33-20.45,8.33h-54.54v44.69h68.17c14.39,0,40.9-28.03,53.78-44.69,0,0,.76-.76,2.27-1.51,1.51-.76,125.74-28.78,125.74-28.78,2.27-.76,5.3,1.51,5.3,3.79l.76,26.51h0Z"/>
</svg>