<?xml version="1.0" encoding="UTF-8"?>
<svg id="Layer_1" xmlns="http://www.w3.org/2000/svg" viewBox="0 0 512 512">
  <defs>
    <style>
      .cls-1 {
        fill: #fff;
      }
    </style>
  </defs>
  <path class="cls-1" d="M471.77,187.53v-.72c-.13.12-.25.24-.38.37.13.12.25.24.38.36Z"/>
  <path class="cls-1" d="M471.77,186.09v-.72c-.13.12-.25.24-.38.37.13.12.25.24.38.36Z"/>
  <path class="cls-1" d="M471.46,178.62s.2.16.32.25v-.72c-.11.16-.24.3-.32.48Z"/>
  <path class="cls-1" d="M470.33,172.45C468.24,47.96,358.97-6.29,246.58.58c-68.84.52-137.45-.41-206.36.05.15,25.59.02,479.88,0,511.14,43.89.02,87.77-.11,131.66-.07,26.11,3.23,30.09-20.28,28.45-40.74-.35-22.09.69-44.35-.33-66.35-.1-.01-.21-.02-.32-.02.11,0,.22,0,.32.02.88-4.61.21-9.45.43-14.14,16.64.02,33.32-.02,49.94-.14,28.8-1.37,57.55-5.33,85.1-14.2,0,0,0,.02,0,.03h0c60.95-18.47,111.83-66.43,127.67-128.94q-.19-.56,0,0c6.33-24.36,8.52-49.6,7.18-74.76ZM188.85,447.5h0c.34.02.61,0,.86-.07-.24.06-.52.1-.86.07ZM296,151.48h0c.14-.07.29-.16.43-.25-.15.09-.29.19-.43.25Z"/>
</svg>