<?xml version="1.0" encoding="UTF-8"?>
<svg id="Layer_1" xmlns="http://www.w3.org/2000/svg" viewBox="0 0 512 512">
  <defs>
    <style>
      .cls-1 {
        fill: #fff;
      }
    </style>
  </defs>
  <path class="cls-1" d="M148.03,512c-1.53,0-2.69-.8-4.14-2.57-.32-.39-.72-.88-1.27-1.49l-.74-.83-.11-1.11c-.46-4.86-.98-9.69-1.5-14.52-1.51-13.99-3.07-28.45-3.07-42.9,0-47.24,16.15-109.27,30.4-163.99,4.41-16.92,8.57-32.93,11.93-47.29-6.33-13.48-9.54-30.87-9.54-51.71,0-45.61,30.53-72.87,60.04-72.87,11.43,0,21.82,4.17,29.26,11.75,8.2,8.36,12.53,20.46,12.53,35,0,20.47-6.97,40.27-13.71,59.42-6.69,19.01-13.01,36.97-13.01,55.37,0,22.96,19.05,40.95,43.38,40.95,64.13,0,88.02-92.73,88.02-151.19,0-66.47-44.67-107.76-116.57-107.76-80.39,0-138.73,57.07-138.73,135.7,0,25.34,10.48,42.48,17.41,53.82,3.82,6.25,6.58,10.76,6.58,14.81,0,6.65-5.22,39.22-19.18,39.22s-31.13-11.74-44.1-30.63c-15.27-22.25-23.67-52.27-23.67-84.52C58.25,69.08,164.97,0,268.15,0c48.65,0,94.49,16.4,129.08,46.18,36.45,31.39,56.52,75.19,56.52,123.32,0,50.89-13.91,100.79-38.16,136.91-28.85,42.98-70.7,65.69-121.02,65.69-23.82,0-53.54-10.73-68.79-31.33-2.24,8.99-4.25,17.23-6.07,24.68-15.47,63.41-20.14,82.54-64.83,143.73l-.61.83-.97.35c-.87.32-1.53.59-2.06.81-1.29.53-2.31.81-3.21.81Z"/>
</svg>