<?xml version="1.0" encoding="UTF-8"?>
<svg id="Layer_1" xmlns="http://www.w3.org/2000/svg" viewBox="0 0 512 512">
  <defs>
    <style>
      .cls-1 {
        fill: #fff;
        fill-rule: evenodd;
      }
    </style>
  </defs>
  <path class="cls-1" d="M55.65,244.87c0-110.65,89.7-200.35,200.35-200.35s200.35,89.7,200.35,200.35c0,55.33-22.4,105.39-58.68,141.67-8.7,8.69-8.7,22.79,0,31.48,8.69,8.69,22.79,8.69,31.48,0,44.29-44.29,71.72-105.54,71.72-173.15C500.87,109.63,391.24,0,256,0S11.13,109.63,11.13,244.87c0,67.61,27.43,128.86,71.72,173.15,8.69,8.69,22.79,8.69,31.48,0,8.69-8.7,8.69-22.79,0-31.48-36.28-36.28-58.68-86.34-58.68-141.67ZM144.7,244.87c0-61.47,49.83-111.3,111.3-111.3s111.3,49.83,111.3,111.3c0,30.74-12.43,58.54-32.6,78.7-8.69,8.7-8.69,22.79,0,31.48,8.7,8.7,22.79,8.7,31.48,0,28.18-28.17,45.64-67.16,45.64-110.18,0-86.06-69.77-155.83-155.83-155.83S100.17,158.81,100.17,244.87c0,43.02,17.47,82.01,45.64,110.18,8.69,8.7,22.79,8.7,31.48,0,8.69-8.69,8.69-22.79,0-31.48-20.17-20.17-32.6-47.96-32.6-78.7ZM311.65,244.87c0,30.74-24.92,55.65-55.65,55.65s-55.65-24.92-55.65-55.65,24.92-55.65,55.65-55.65,55.65,24.92,55.65,55.65ZM204.2,367.17c-2.08-30.02,21.7-55.52,51.8-55.52s53.88,25.5,51.8,55.52l-7.17,103.19c-1.63,23.45-21.13,41.64-44.63,41.64s-43-18.19-44.63-41.64l-7.17-103.19Z"/>
</svg>