<?xml version="1.0" encoding="UTF-8"?>
<svg id="Layer_1" xmlns="http://www.w3.org/2000/svg" viewBox="0 0 512 512">
  <defs>
    <style>
      .cls-1 {
        fill: #fff;
      }
    </style>
  </defs>
  <path class="cls-1" d="M511.99,253.93c2.05,143.98-116.94,263.22-266.25,257.9C116.85,507.24-2.73,400.71.03,249.02,2.4,118.21,110.2-3.61,263.95.08c133.69,3.21,247.6,111.59,248.05,253.85ZM357.85,123.96c-48.15,48.26-96.54,96.77-145.94,146.28-19.74-19.74-39.05-39.05-57.91-57.93-19.28,19.27-38.64,38.61-58.13,58.09,38.66,38.63,77.66,77.61,115.98,115.91,68.17-68.14,136.43-136.36,204.1-203.99-18.67-18.76-37.98-38.15-58.1-58.36Z"/>
</svg>