<?xml version="1.0" encoding="UTF-8"?>
<svg id="Layer_1" xmlns="http://www.w3.org/2000/svg" viewBox="0 0 512 512">
  <defs>
    <style>
      .cls-1 {
        fill: #fff;
      }
    </style>
  </defs>
  <path class="cls-1" d="M500.9,404.18c-9.34-.03-18.69-.03-28.04,0-3.46,0-3.58.1-4.25,3.47-.82,4.19-1.95,8.28-3.85,12.13-5.98,12.11-15.67,18.7-29.18,19.58-2.11.09-4.22.09-6.34,0-1.05-.02-2.09-.06-3.13-.19-11.25-1.48-20.51-6.95-28.69-14.47-6.86-6.31-12.65-13.56-17.96-21.2-2.16-3.11-2.08-3.62.86-5.98,11.45-9.21,21.86-19.49,31.28-30.75,12.42-14.84,22.73-31.04,30.78-48.67,7.05-15.43,12.25-31.43,15.6-48.06,2.42-12,3.74-24.12,4.23-36.31.37-9.26.11-18.53-.66-27.8-.69-8.35-1.74-16.65-3.31-24.87-5.08-26.6-14.75-51.43-29.03-74.46-13.44-21.68-30.2-40.41-50.06-56.37-18.97-15.24-39.87-27.16-62.61-35.82C293.16,5.5,269.06.02,243.9.03c-8.44,0-16.88-.14-25.31.24-3.4.15-6.81.18-10.2.52-10.3,1.04-20.4,3.12-30.4,5.71-20.6,5.34-40.01,13.57-58.41,24.2-15.1,8.73-28.99,19.13-41.73,31.03-6.93,6.48-13.46,13.37-19.51,20.7-10.71,12.96-19.95,26.9-27.49,41.91-5.43,10.8-9.92,21.99-13.5,33.55-5.58,18.03-8.89,36.47-9.67,55.28-.51,12.24-.38,24.53,1.02,36.77,1.77,15.38,4.94,30.42,9.72,45.13,4.35,13.39,10.18,26.12,17,38.42,8.67,15.64,19.25,29.91,31.52,42.89,6.47,6.84,13.29,13.34,20.53,19.38,12.48,10.41,25.89,19.42,40.23,27.02,18.22,9.66,37.39,16.8,57.5,21.41,14.25,3.27,28.7,5.01,43.29,5.56,7.8.29,15.6-.13,23.4-.74,12.34-.96,24.51-2.9,36.51-5.88,3.98-.99,4.15-.91,6.23,2.53,7.87,13,16.76,25.16,27.65,35.87,10.66,10.48,22.76,18.61,36.68,24,7.27,2.82,14.68,5.11,22.53,5.73,3.98.31,7.98.31,11.95.73h17.17c.64-.41,1.36-.18,2.04-.2,7.42-.21,14.76-.75,21.97-2.78,21.29-6,38.55-17.7,50.9-36.14,13.14-19.62,19.38-41.37,19.09-64.99-.04-3.44-.27-3.7-3.7-3.71ZM358.56,236.86c-.3,1.45.16,2.95-.28,4.39.16,6.77-.42,13.51-.95,20.25-1.27,16.14-3.53,32.13-7.5,47.84-2.48,9.81-5.61,19.39-9.73,28.64-.19.44-.42.86-.79,1.61-.82-1.16-1.53-2.12-2.21-3.11-8.69-12.74-18.49-24.46-30.75-33.97-14.96-11.59-31.94-18.25-50.59-20.87-5.88-.82-11.78-1.27-17.71-1.36-2.23-.14-4.46-.14-6.69,0-15.96.4-31.47,3.12-46.38,8.94-9.87,3.85-19.04,8.93-27.3,15.63-1.14.92-1.34,1.57-.65,2.92,4.12,8.07,8.14,16.2,12.19,24.31.44.88.65,1.64,2.09,1.12,20.6-7.51,39.92-4.74,57.81,7.74,11.06,7.71,19.18,18.2,26.42,29.4,5.73,8.85,10.65,18.16,15.51,27.5.82,1.58-.05,1.66-1.14,1.96-12.97,3.53-26.22,4.51-39.6,4.22-17.33-.37-34.12-3.27-49.95-10.64-19.14-8.9-33.34-23.06-43.72-41.24-9.16-16.03-14.67-33.38-18.33-51.37-5.98-29.43-7.17-59.22-6.47-89.15.33-14.24,1.23-28.44,3.12-42.56,3.23-24.04,8.64-47.46,20.17-69.07,11.13-20.87,26.99-36.77,49.04-46.02,11.81-4.96,24.17-7.58,36.91-8.55,14.19-1.08,28.3-.62,42.31,2.04,33.57,6.39,57.76,25.14,73.17,55.48,8.32,16.37,13.3,33.82,16.55,51.8,4.92,27.17,5.98,54.61,5.44,82.14Z"/>
  <path class="cls-1" d="M419.2,439.04c2.26,0,4.52,0,6.78,0-2.26.46-4.52.46-6.78,0Z"/>
</svg>