<?xml version="1.0" encoding="UTF-8"?>
<svg id="Layer_1" xmlns="http://www.w3.org/2000/svg" viewBox="0 0 512 512">
  <defs>
    <style>
      .cls-1 {
        fill: #fff;
        fill-rule: evenodd;
      }
    </style>
  </defs>
  <path class="cls-1" d="M445.09,254.72c32.19-8.47,60.83-32.85,60.83-81.88,0-81.62-68.44-100.62-156.14-100.62H.5v367.56h147.01v-124.75h174.39c26.87,0,42.58,10.78,42.58,37.48v87.27h147.01v-91.89c0-50.05-27.88-81.62-66.41-93.17ZM347.22,225.03c-.3,0-.6,0-.89-.02v.02h-198.75v-50.11h198.75v.02c.3-.01.59-.02.89-.02,13.66,0,24.75,11.22,24.75,25.06s-11.08,25.06-24.75,25.06Z"/>
</svg>