<?xml version="1.0" encoding="UTF-8"?>
<svg id="Layer_1" xmlns="http://www.w3.org/2000/svg" viewBox="0 0 512 512">
  <defs>
    <style>
      .cls-1 {
        fill: #fff;
      }
    </style>
  </defs>
  <path class="cls-1" d="M453.74,199.73c-16.09,0-30.25,6.65-40.66,17.06-38.3-26.5-89.9-43.56-147.08-45.38l29.72-133.89,94.62,21.24c0,23.17,18.88,42.05,42.05,42.05s42.59-19.42,42.59-42.59-18.88-42.59-42.59-42.59c-16.52,0-30.79,9.98-37.87,23.6l-104.49-23.17c-5.26-1.39-10.41,2.36-11.8,7.62l-32.61,147.62c-56.75,2.36-107.82,19.42-146.22,45.92-10.41-10.84-25.1-17.49-41.2-17.49-59.65,0-79.17,80.03-24.57,107.39-1.93,8.48-2.79,17.49-2.79,26.5,0,89.9,101.27,162.75,225.61,162.75s226.15-72.84,226.15-162.75c0-9.01-.97-18.45-3.33-26.93,53.53-27.46,33.79-106.96-25.53-106.96h0ZM120.2,312.81c0-23.6,18.88-42.59,42.59-42.59s42.05,18.88,42.05,42.59-18.88,42.05-42.05,42.05c-23.6.11-42.59-18.88-42.59-42.05ZM350.11,413.11c-39.05,39.05-149.23,39.05-188.28,0-4.29-3.75-4.29-10.41,0-14.7,3.75-3.75,10.41-3.75,14.16,0,29.82,30.58,128.74,31.11,159.85,0,3.75-3.75,10.41-3.75,14.16,0,4.4,4.29,4.4,10.94.11,14.7h0ZM349.25,354.97c-23.17,0-42.05-18.88-42.05-42.05s18.88-42.59,42.05-42.59,42.59,18.88,42.59,42.59c-.11,23.07-18.99,42.05-42.59,42.05Z"/>
</svg>