<?xml version="1.0" encoding="UTF-8"?>
<svg id="Dimensions" xmlns="http://www.w3.org/2000/svg" viewBox="0 0 512 512">
  <defs>
    <style>
      .cls-1 {
        fill: #fff;
      }
    </style>
  </defs>
  <path class="cls-1" d="M225.49,270.02l23.36-56.06h-28.03l16.35-44.38c-9.62-.76-23.32-5.11-32.31,1.17-6.41,4.47-9.91,19.81-12.85,26.86-4.19,10.05-24.4,39.26-6.23,45.94,4.85,1.78,11.27.78,16.35.78-2.21,10.48-7.83,20.53-12.07,30.37-2.03,4.71-5.61,11.2-3.11,16.35,5.45,11.23,26.02,7.01,36.21,7.01,4.5,0,9.79.87,13.24-2.73,4.71-4.91,7.81-16.71,10.12-22.97l-21.02-2.34ZM105.96,174.25c-2.34-6.48-24.35-7.28-29.59-3.5-6.37,4.59-2.73,26.65-2.73,33.87v77.09c0,7.97,2.96,23.37-1.17,30.37-3.88,6.58-13.43,4.67-19.86,4.67,1.27,6.05,4.95,20.65,10.12,24.53,11.75,8.81,35.41-1.4,40.49-12.85,5.33-12,3.11-26.9,3.11-39.71v-74.75c0-11.3,3.44-29.11-.39-39.71ZM498.8,298.05c0-21.73,3.49-48.57-23.36-55.29-4.57-1.14-9.35-.78-14.02-.78,0-23.93,2.28-51.41-25.69-59.96-8.39-2.56-19.33-.78-28.04-.78v-11.68h-32.7v11.68h-21.02v32.71h21.02v28.03h-32.7v32.7h32.7v67.75h32.7v-67.75h35.04c4.94,0,11.83-1.22,16.35,1.17,8.53,4.52,11.48,30.99,4.28,37.77-6.11,5.74-19.97,3.11-27.64,3.11,1.28,6.99,3.99,20.11,10.12,24.53,3.28,2.36,9.47,1.17,13.24,1.17,12.11,0,25.86,1.41,34.26-9.34,7.62-9.76,5.45-23.46,5.45-35.04ZM428.72,241.99h-21.03v-28.03h21.03v28.03ZM314.26,213.96h18.69v-32.7h-72.42v32.7h18.69v98.11l-29.59,1.17-12.46,29.2h107.46v-30.37h-30.37v-98.11ZM484.79,213.18c3.01-.75,6.8-1.91,8.95-4.28,18.96-20.85-19.05-41.18-26.86-15.96-1.98,6.4-.78,14.39-.78,21.02,6.12,0,12.71.72,18.69-.78ZM19.92,213.96l-7.01,77.09,14.02,37.38,15.96-28.03,9.73-86.43H19.92ZM127.38,213.96c0,16.26,3.1,32.9,4.67,49.06,2.21,22.75,3.81,43.22,16.35,63.07h4.67l14.02-35.04-7.01-77.09h-32.7ZM181.88,310.9l-12.46,31.54h51.39l11.68-30.37-32.7-.78-17.91-.39Z"/>
</svg>