<?xml version="1.0" encoding="UTF-8"?>
<svg id="Layer_1" xmlns="http://www.w3.org/2000/svg" viewBox="0 0 512 512">
  <defs>
    <style>
      .cls-1 {
        fill: #fff;
        fill-rule: evenodd;
      }
    </style>
  </defs>
  <path class="cls-1" d="M38.89,256.59c0,49.96,16.5,96.94,47.72,135.86l-6.39,5.61-14.13-14.72c-86.05-89.67-83.1-232.64,6.57-318.68,89.67-86.05,232.63-83.1,318.69,6.57l26.12,27.23-4.28,7.62-4.02-3.84c-40.97-40.61-95.3-62.97-152.97-62.97-119.83,0-217.31,97.49-217.31,217.33ZM445.9,128.59l-18.69-19.48-6.29,5.72c33.92,39.38,52.6,89.72,52.6,141.76,0,119.82-97.49,217.31-217.32,217.31-54.09,0-105.93-20-145.96-56.33l-5.93,6.1,16.35,17.03c41.66,43.41,97.76,68,157.98,69.25,1.6.03,3.19.05,4.78.05,58.45,0,113.66-22.17,155.92-62.72,89.67-86.05,92.62-229.01,6.57-318.69ZM330.3,277c16.36-12.33,48.71-36.69,70.37-53,3.12-2.35,4.39-6.43,3.15-10.14-1.24-3.71-4.71-6.2-8.61-6.2h-84.42c-7.82,0-14.75-5-17.24-12.41-6.7-20.04-20.05-59.95-28.89-86.39-1.24-3.71-4.72-6.21-8.63-6.2s-7.38,2.52-8.61,6.23c-8.75,26.41-21.94,66.26-28.58,86.31-2.46,7.44-9.42,12.46-17.25,12.46h-84.2c-3.92,0-7.39,2.5-8.62,6.22-1.23,3.72.05,7.8,3.18,10.15,21.72,16.22,54.06,40.37,70.45,52.62,6.19,4.63,8.78,12.66,6.45,20.03-6.32,20.04-19,60.18-27.57,87.33-1.2,3.79.21,7.91,3.47,10.18,3.26,2.28,7.61,2.17,10.76-.26,21.58-16.68,52.93-40.93,69.42-53.68,6.53-5.05,15.64-5.06,22.18-.04,16.65,12.77,48.44,37.18,70.2,53.88,3.15,2.42,7.5,2.51,10.75.23,3.25-2.28,4.65-6.4,3.45-10.18-8.57-27.07-21.27-67.15-27.59-87.13-2.32-7.34.24-15.37,6.39-20Z"/>
</svg>