<?xml version="1.0" encoding="UTF-8"?>
<svg id="Layer_1" xmlns="http://www.w3.org/2000/svg" viewBox="0 0 512 512">
  <defs>
    <style>
      .cls-1 {
        fill: #fff;
      }
    </style>
  </defs>
  <path class="cls-1" d="M307.9,288.71c19.63-15.54,19.63-45.8,0-61.83-27.94-23.19-58.58-42.91-91.27-58.72-22.57-10.79-47.76,4.25-51.36,29.93-5.56,39.25-6.54,78.84-2.94,116.45,2.45,26.01,27.31,41.54,50.21,31.57,34.21-14.72,66.28-33.98,95.35-57.25v-.16ZM454.61,174.39c43.08,47.15,43.22,119.34.33,166.67-73.93,81.59-170.51,139.28-277.39,165.68-56.83,14.22-114.66-19.33-130.52-75.73-32.22-110.07-27.48-234.54,3.6-345.11C66.98,27.84,121.61-8.63,177.87,4.78c104.19,24.86,201.99,88.81,276.74,169.61Z"/>
</svg>