<?xml version="1.0" encoding="UTF-8"?>
<svg id="Layer_1" xmlns="http://www.w3.org/2000/svg" viewBox="0 0 512 512">
  <defs>
    <style>
      .cls-1 {
        fill: #fff;
      }
    </style>
  </defs>
  <path class="cls-1" d="M321.27,111.82c28.56-.22,55.54,5.95,80.7,19.33,21.05,11.19,39.09,26,53.89,44.95,15.8,20.23,27.23,42.43,32.82,67.43,2.11,9.42,3.17,19.12,4.01,28.75.62,7.13.33,14.37.09,21.55-1.02,29.67-9.68,57.01-26.43,81.48-6.31,9.22-13.68,17.87-21.46,25.92-23.99,24.84-48.3,49.37-72.72,73.79-9.54,9.54-19.22,19.06-29.72,27.47-14.53,11.64-33.22,8.73-46.86-1.79-12.13-9.36-17.28-22.14-16.84-37.09.24-8.25,3.69-15.57,9.59-21.56,22.42-22.77,45.12-45.27,67.13-68.43,13.9-14.62,27.97-29.34,39.78-45.6,17-23.41,17.83-49.41,7.19-76.17-4.59-11.54-10.79-22.02-19.26-30.81-11.81-12.27-26.44-20.18-43.47-22.48-8.64-1.17-17.48-1.32-26.22-1.14-15.71.32-29.7,5.96-41.53,16.14-9.01,7.75-17.12,16.53-25.88,24.58-10.16,9.35-19.92,19.34-31.08,27.35-14.8,10.63-30.34,9.15-45-1.94-11.88-8.99-17.88-21.21-17.22-36.31.37-8.49,3.35-16.23,8.82-22.56,10.61-12.26,21.14-24.7,32.76-35.96,16.89-16.37,34.92-31.53,56.59-41.48,15.44-7.09,31.48-12.27,48.51-13.78,7.25-.64,14.52-1.09,21.78-1.63Z"/>
  <path class="cls-1" d="M187.66,400.22c-34.07.25-64.47-10.34-92.37-29.06-27.09-18.18-46.84-42.6-60.55-71.98-7.56-16.2-12.41-33.19-14.54-51.08-3.69-31.03.71-60.81,12.9-89.35,6.07-14.2,14.26-27.33,25.18-38.51,33.88-34.65,67.66-69.39,101.74-103.84,7.77-7.86,17.54-13.28,28.7-14.28,14.82-1.32,33.27,8.17,40.27,23.65,4.78,10.56,6.65,21.47,1.92,32.11-2.92,6.58-8.13,12.18-12.56,18.04-1.87,2.47-4.41,4.42-6.6,6.65-22.54,22.92-45.37,45.55-67.48,68.87-12.76,13.45-27.2,25.94-33.94,43.96-2.89,7.73-4.83,15.96-6.01,24.14-3.35,23.26,4.26,43.92,17.88,62.14,13.86,18.55,32.62,29.79,56.02,32.68,28.14,3.47,51.92-5.05,71.91-25.02,12.19-12.18,24.75-24,37.09-36.05,15.5-15.14,34.07-16.31,49.38-8.58,16.78,8.47,24.55,24.94,22.33,41.87-.94,7.18-4.32,15.01-8.97,20.55-11.62,13.84-24.34,26.8-37.11,39.62-15.3,15.36-32.48,28.33-52.15,37.73-13.58,6.49-27.88,10.74-42.82,12.61-10.05,1.26-20.16,2.1-30.24,3.12Z"/>
</svg>