<?xml version="1.0" encoding="UTF-8"?>
<svg id="Layer_1" xmlns="http://www.w3.org/2000/svg" viewBox="0 0 512 512">
  <defs>
    <style>
      .cls-1 {
        fill: #fff;
      }
    </style>
  </defs>
  <path class="cls-1" d="M256.82,1.51c2.49-.08,9.45.33,12.02.75.92.07,3.22.57,4.14.64,6.61,1.85,13.41,3.21,19.8,5.65,13.64,5.2,25.44,13.44,35.74,23.75,16.94,16.96,27.92,37.33,34.01,60.4,2.29,8.66,3.75,17.48,4.25,26.44.09,1.52.67,3.01,1.02,4.51.2.05.41.11.61.16,1.69.05,3.37.15,5.06.15,30.11,0,60.22,0,90.33.03,3,0,6,.21,9,.44,4.24.33,7.44,2.91,8.29,7.06.41,1.99.11,4.14.04,6.22-.23,6.99-.44,13.99-.79,20.97-.35,7.05-.91,14.09-1.3,21.13-.34,6.07-.56,12.15-.86,18.22-.26,5.09-.6,10.18-.83,15.27-.31,7.13-.52,14.27-.8,21.4-.3,7.41-.63,14.82-.94,22.23,0,.14-.01.28-.02.42-.54,8.49-1.12,16.99-1.61,25.49-.35,6.07-.59,12.15-.85,18.23-.29,6.64-.48,13.28-.82,19.92-.37,7.39-.89,14.78-1.28,22.17-.33,6.29-.55,12.58-.86,18.87-.4,8.1-.85,16.2-1.26,24.31-.3,5.86-.56,11.72-.85,17.58-.27,5.31-.6,10.61-.83,15.92-.31,7.2-.51,14.41-.85,21.61-.36,7.4-1.07,14.79-1.19,22.19-.09,5.84-1,11.46-3.06,16.86-6.86,17.98-23.55,30.01-43.67,30-62.82-.03-125.65-.04-188.47-.04-46.71,0-93.43-.01-140.14.06-6.75.01-13.08-1.6-18.95-4.65-16.88-8.79-23.86-23.78-25.36-41.91-.67-8.15-.93-16.33-1.29-24.5-.34-7.55-.54-15.11-.87-22.66-.21-4.88-.59-9.75-.82-14.63-.32-6.85-.56-13.7-.86-20.54-.25-5.65-.61-11.3-.82-16.95-.33-8.6-.58-17.21-.86-25.81-.03-1.05.05-2.11-.02-3.16-.4-6.4-.93-12.8-1.22-19.21-.28-6.02-.31-12.06-.46-18.08,0-.28-.01-.56-.03-.84-.41-6.05-.89-12.1-1.21-18.16-.36-6.91-.56-13.84-.87-20.76-.25-5.59-.56-11.17-.84-16.76-.43-8.66-.87-17.32-1.26-25.98-.31-6.91-.57-13.82-.85-20.74-.29-7.2-.55-14.41-.85-21.61-.25-5.94-.6-11.87-.83-17.81-.2-5.25-.29-10.5-.44-15.75-.02-.63-.05-1.26-.17-1.88-1.14-5.88,1.05-12.82,9-14,1.59-.24,3.23-.14,4.84-.14,31.38,0,62.75,0,94.13,0,1.55,0,3.11.12,4.63-.07.56-.07,1.41-.84,1.48-1.38,1.07-7.41,1.57-14.95,3.15-22.24,1.68-7.78,3.95-15.49,6.69-22.96,5.64-15.34,14.15-29.08,25.15-41.14,10.84-11.88,23.74-21.07,38.62-27.31,6.34-2.66,14.2-5.42,21.08-6.28,3.56-.66,16.39-1.05,17.07-1.08ZM334.67,123.89c.28,0,.55-.01.83-.02,1.26.11,1.37-.7,1.28-1.63-.27-2.9-.39-5.84-.87-8.7-1-5.99-1.73-12.08-3.41-17.89-4.96-17.19-13.34-32.4-26.99-44.4-5.89-5.18-12.04-10.08-19.13-13.34-11.31-5.19-23.28-7.42-35.82-6.45-5.57.43-10.96,1.47-16.2,3.23-16.83,5.65-29.9,16.59-39.98,30.73-11.93,16.75-18.03,35.79-18.92,56.43-.07,1.65.27,2.16,2.03,2.16,48.46-.05,96.91-.04,145.37-.04,3.94,0,7.87-.05,11.81-.07ZM259.87,444.11c6.15-.7,12.67-1.11,19.06-2.25,15.6-2.79,29.61-8.86,41.09-20.29,10.9-10.85,17.1-23.86,18.8-38.98.6-5.37.12-10.87.07-16.31-.05-4.91-1.44-9.52-3.18-14.05-5.32-13.9-16.12-23.02-27.79-31.15-13.46-9.37-28.51-15.63-43.9-21.09-7.73-2.74-15.49-5.4-23.1-8.43-10.46-4.17-20.29-9.5-27.97-17.97-7.16-7.89-10.81-17.09-9.08-27.92,1.15-7.18,4.19-13.52,9.04-18.92,10.41-11.61,23.97-16.21,39.05-16.97,4.64-.23,9.36.25,13.98.85,11.52,1.5,22.69,4.43,33.14,9.62,5.09,2.53,9.93,5.54,14.92,8.26,3.1,1.69,4.02,1.43,5.9-1.48,2.14-3.31,4.27-6.62,6.3-9.99,2.73-4.53,2.4-5.82-1.99-8.76-.12-.08-.24-.15-.35-.24-11.19-7.85-23.73-12.64-36.83-16.09-7.36-1.93-14.82-3.22-22.43-3.91-6.71-.6-13.37-.85-20.05-.26-15.15,1.34-29.01,6.22-41.2,15.5-7.83,5.97-14.51,13.05-18.78,21.92-4.39,9.11-6.91,18.7-6.18,29.12.54,7.84,2.29,15.18,5.78,22.12,6.18,12.28,15.96,21.2,27.53,28.13,11.96,7.17,25.25,11.49,38.17,16.56,8.55,3.36,17.38,6.02,25.9,9.46,9.78,3.95,18.71,9.41,26.26,16.9,10.34,10.28,15.12,22.47,11.88,37.03-2.37,10.64-8.86,18.47-17.82,24.41-7.36,4.87-15.5,7.83-24.12,9.36-5.42.96-10.92,1.88-16.4,1.97-4.82.08-9.7-.8-14.49-1.64-18.41-3.24-34.91-10.87-49.85-22.02-1.8-1.35-3.58-2.74-5.48-3.94-2.61-1.65-4.14-1.39-5.9,1.07-3.07,4.28-6.11,8.59-9,13.01-1.91,2.92-1.72,3.27.98,5.57,12.54,10.69,26.46,19,42.22,23.93,7.19,2.25,14.51,4.29,21.91,5.55,7.75,1.31,15.68,1.56,23.94,2.32Z"/>
</svg>