<?xml version="1.0" encoding="UTF-8"?>
<svg id="Layer_1" xmlns="http://www.w3.org/2000/svg" viewBox="0 0 512 512">
  <defs>
    <style>
      .cls-1 {
        fill: #fff;
      }
    </style>
  </defs>
  <path class="cls-1" d="M503.64,339c-19.8-37.55-61.44-93.49-75.59-111.85-3.23-4.17-4.03-9.18-2.43-13.76,14.57-45.09,23.04-113.51,26.27-145.24,1.21-9.18-6.06-16.7-14.95-16.27-64.67,3.75-131.38,22.94-154.82,30.05-5.25,1.66-10.92,0-14.55-4.17C236.46,41.85,181.88,14.31,152.79,1.38c-9.7-4.6-20.22,2.92-20.22,13.76l2.43,133.97c0,5.43-2.82,10.86-7.67,13.36-32.34,16.7-84.08,65.52-114.4,95.16-10.51,10.01-6.87,27.95,6.47,32.97,12.75,4.58,28.94,11.71,46.86,22.48l-54.77,57.04c-3.22,3.74-5.22,8.32-5.22,13.31s1.61,10,5.22,13.33c3.62,3.33,8.05,5.4,12.88,5.4h0c4.82.01,9.65-2.06,12.86-5.39l59.92-62.42c9,7.12,20.78,17.59,31.55,28.13l-110.91,116.32c-3.64,3.77-5.26,8.35-5.26,13.36s1.62,10.01,5.26,13.35c3.64,3.34,8.08,5.43,12.93,5.43,4.99.02,9.78-1.93,13.34-5.43l109.77-115.13c7.01,8.99,15.77,20.2,23.49,31.03l-54.35,58.94c-3.22,3.74-4.84,8.32-4.84,13.33,0,5.42,2.02,9.98,5.64,13.31,3.22,3.33,7.64,4.99,12.47,4.99,5.23,0,9.65-2.07,13.27-5.82l47.97-52c7.1,12.83,12.36,23.15,18.79,38,.9,1.69,1.84,3.36,2.82,5.01,6.06,10.03,19.01,12.11,27.49,4.17,35.99-32.97,82.06-108.1,95.81-131.04,2.82-4.6,7.28-7.09,12.13-7.09l137.43-2.51h.01c10.9.01,17.37-12.1,11.71-21.7ZM421.57,87.75c-4.85,35.06-31.93,176.94-151.98,303.4-1.3,1.38-2.94,2.4-4.75,2.97-1.81.57-3.73.68-5.59.3-1.86-.38-3.59-1.22-5.04-2.45-1.45-1.23-2.56-2.8-3.23-4.58l-27.49-65.11-16.16,5.02h.01s-17.8,4.6-17.8,4.6c-1.58.39-3.24.35-4.8-.12-1.56-.47-2.97-1.34-4.08-2.53-1.11-1.19-1.89-2.66-2.24-4.25-.36-1.59-.28-3.24.21-4.8l9.31-32.96-76.8-30.05c-8.09-3.34-10.11-14.19-3.64-20.03,41.21-37.16,168.55-141.91,307.6-156.52.93-.09,1.86.04,2.73.38.87.34,1.64.87,2.27,1.56s1.08,1.51,1.34,2.41.3,1.84.12,2.75Z"/>
  <path class="cls-1" d="M313.24,228.82c22.78,0,41.24-19.05,41.24-42.56s-18.46-42.58-41.24-42.58-41.22,19.05-41.22,42.58,18.46,42.56,41.22,42.56h0Z"/>
</svg>