<?xml version="1.0" encoding="UTF-8"?>
<svg id="Dimensions" xmlns="http://www.w3.org/2000/svg" viewBox="0 0 512 512">
  <defs>
    <style>
      .cls-1 {
        fill: #fff;
      }
    </style>
  </defs>
  <path class="cls-1" d="M438.15,77.72C390.53,30.09,327.21,3.87,259.87,3.87S129.21,30.09,81.58,77.72C33.96,125.34,7.74,188.65,7.74,256c0,20.47,2.44,40.56,7.14,59.95-.33,1.01-.66,2.02-.95,3.06-6.37,15.3-14.72,29.94-13.87,47.45.73,15.08,7.51,23.7,22.41,25.72,7.99,1.08,16.19.64,24.3.89.51.09,1.02.15,1.54.23,9.53,14.62,20.64,28.37,33.27,41,47.62,47.62,110.94,73.85,178.28,73.85s130.66-26.23,178.28-73.85c47.62-47.62,73.85-110.94,73.85-178.28s-26.23-130.66-73.85-178.28ZM45.48,260.52c-9.15,16.93-21.56,32.12-28.7,50.14-3.95-17.6-6.06-35.89-6.06-54.66,0-57.07,19.3-109.7,51.69-151.75-18.88,30.45-26.88,61.76-1.25,94.35,6.55,8.32,6.8,18.41,2.7,28.54-4.82,11.89-12.36,22.21-18.39,33.39ZM259.87,505.14c-86.5,0-162.84-44.32-207.53-111.44,5.77.31,11.49-.43,17.27-1.57,16.03-3.16,31.95-6.86,48.23-8.85,15.88-1.95,27.36,3.85,35.62,17.15,6.47,10.41,12.65,21.03,20.49,30.52,10.7,12.97,24.34,20.25,41.2,20.86,10.89.39,21.91,1.22,32.67-.41,17.48-2.65,31.51,1.76,44.52,14.35,14.96,14.49,33.33,20.5,55,17.32,13.33-1.96,25.4-6.51,37.44-11.58-36.74,21.38-79.42,33.64-124.91,33.64ZM386.5,260.56c-11.11,13.94-22.43,28.31-40.3,34.7-1.09-6.54,4.13-9.64,7.6-13.57,13.62-15.4,15.15-28.7,1.15-43.41-21.61-22.72-47.47-39.45-79.13-44.85-13.43-2.29-23.31,2.57-29.08,14.99-15.37,33.08-15.21,66.77-1.23,100.25,3.42,8.2,10.32,13.64,19.38,15.79,3.38.8,7.44.59,9.15,4.75-32,8.5-50.27.05-60.31-30.7-14.75-45.18-14.14-90.69,2.4-135.46,8.32-22.54,24.22-31.87,48.23-27.7,49.23,8.55,89.85,32.77,121.63,71.11,15.71,18.94,15.75,34.97.51,54.1Z"/>
</svg>