<?xml version="1.0" encoding="UTF-8"?>
<svg id="Layer_1" xmlns="http://www.w3.org/2000/svg" viewBox="0 0 512 512">
  <defs>
    <style>
      .cls-1 {
        fill: #fff;
      }
    </style>
  </defs>
  <path class="cls-1" d="M504.62,393.08c-89.76-43.38-104.07-110.46-104.7-115.51-.77-6.03-1.64-10.77,5.01-16.9,6.41-5.94,34.86-23.53,42.76-29.04,13.08-9.12,18.79-18.23,14.56-29.43-2.96-7.7-10.14-10.66-17.77-10.66-2.4,0-4.78.28-7.12.8-14.33,3.11-28.25,10.29-36.31,12.23-.97.25-1.96.38-2.96.4-4.3,0-5.85-1.91-5.51-7.08,1.01-15.67,3.14-46.25.67-74.82-3.36-39.3-16.04-58.78-31.1-76-7.23-8.25-41.27-43.98-106.21-43.98s-98.9,35.88-106.13,44.16c-15.05,17.22-27.71,36.7-31.1,76-2.47,28.57-.25,59.13.67,74.82.3,4.92-1.21,7.08-5.51,7.08-1-.02-1.99-.15-2.96-.4-8.04-1.94-21.97-9.13-36.3-12.23-2.34-.52-4.73-.79-7.12-.8-7.58,0-14.81,2.92-17.77,10.66-4.24,11.2,1.51,20.3,14.57,29.43,7.9,5.51,36.34,23.12,42.76,29.04,6.63,6.13,5.78,10.87,5.01,16.9-.64,4.98-14.96,72.06-104.7,115.52-5.26,2.55-14.2,7.94,1.57,16.65,24.76,13.61,41.23,12.14,54.06,20.39,10.87,7,4.46,22.11,12.35,27.56,9.73,6.71,38.5-.47,75.53,11.77,31.1,10.25,50.16,39.27,105.19,39.27s74.55-29.09,105.15-39.2c37.1-12.25,65.81-5.07,75.53-11.77,7.91-5.45,1.47-20.56,12.35-27.56,12.81-8.25,29.28-6.78,54.05-20.47,15.77-8.78,6.83-14.17,1.52-16.82Z"/>
</svg>