<?xml version="1.0" encoding="UTF-8"?>
<svg id="Dimensions" xmlns="http://www.w3.org/2000/svg" viewBox="0 0 512 512">
  <defs>
    <style>
      .cls-1 {
        fill: #fff;
      }
    </style>
  </defs>
  <g>
    <path class="cls-1" d="M266.41,321.81c-9.04,12.46-26.4,15.18-38.77,6.06-12.37-9.11-15.06-26.61-6.01-39.07.03-.04.06-.08.09-.13,13.9-19.49,13.9-45.74,0-65.23-9.06-12.45-6.4-29.94,5.96-39.08,12.33-9.12,29.65-6.46,38.73,5.94,28.28,39.2,28.28,92.3,0,131.5h0Z"/>
    <path class="cls-1" d="M355.95,387.53c-9.11,12.41-26.48,15.02-38.79,5.83-12.3-9.17-14.9-26.64-5.82-39.05,42.33-58.56,42.33-137.95,0-196.51-9.09-12.42-6.47-29.92,5.86-39.08,12.31-9.15,29.65-6.53,38.75,5.86,56.81,78.3,56.81,184.64,0,262.94h0Z"/>
    <path class="cls-1" d="M445.93,453.37c-9.13,12.4-26.5,15-38.81,5.8-12.17-9.09-14.85-26.34-6.02-38.75,70.57-98.04,70.57-230.68,0-328.72-9-12.5-6.24-29.98,6.16-39.04,12.36-9.03,29.64-6.31,38.66,6.1,84.76,117.67,84.76,276.94,0,394.61h0Z"/>
  </g>
  <ellipse class="cls-1" cx="84.52" cy="266.57" rx="82.02" ry="82.65"/>
</svg>