<?xml version="1.0" encoding="UTF-8"?>
<svg id="Layer_1" xmlns="http://www.w3.org/2000/svg" viewBox="0 0 512 512">
  <defs>
    <style>
      .cls-1 {
        fill: #fff;
      }
    </style>
  </defs>
  <path class="cls-1" d="M90.11,256.2l4.61,51.7-4.61,54.33c-.24,1.99-1.75,3.5-3.5,3.5s-3.34-1.51-3.34-3.5l-4.45-54.33,4.45-51.7c0-1.75,1.51-3.34,3.34-3.34s3.26,1.59,3.5,3.34ZM107.13,219.93c-2.23,0-3.74,1.75-3.98,3.98l-3.98,84,3.98,54.33c.24,2.23,1.75,3.98,3.98,3.98,1.99,0,3.74-1.75,3.74-3.98l4.61-54.33-4.61-84c0-2.23-1.75-3.98-3.74-3.98ZM127.42,200.76c-2.47,0-4.22,1.75-4.45,4.22l-3.5,103.41,3.5,53.93c.24,2.47,1.99,4.22,4.45,4.22,2.23,0,4.22-1.75,4.22-4.22l4.22-53.93-4.22-103.41c0-2.47-1.99-4.22-4.22-4.22h0ZM7.23,277.6c-1.11,0-1.75.87-1.99,1.99l-3.74,28.32,3.74,27.84c.24,1.11.87,1.99,1.99,1.99s1.75-.87,1.99-1.99l4.45-27.84-4.45-28.32c-.24-1.11-.87-1.99-1.99-1.99h0ZM26,260.18c-1.11,0-1.99.87-1.99,1.99l-5.09,45.74,5.09,44.62c0,1.35.87,2.23,1.99,2.23s1.99-.87,2.23-1.99l5.73-44.86-5.73-45.74c-.24-1.11-1.11-1.99-2.23-1.99ZM46.12,251.11c-1.35,0-2.47,1.11-2.62,2.62l-4.61,54.17,4.61,52.34c.24,1.35,1.35,2.47,2.62,2.47,1.35,0,2.47-1.11,2.47-2.47l5.49-52.34-5.49-54.17c0-1.51-1.11-2.62-2.47-2.62h0ZM66.25,249.36c-1.51,0-2.86,1.11-2.86,2.86l-4.61,55.68,4.61,53.93c0,1.75,1.35,2.86,2.86,2.86s2.86-1.11,3.1-2.86l5.09-53.93-5.09-55.68c-.24-1.75-1.59-2.86-3.1-2.86h0ZM258.27,161.14c-.87-.64-2.23-1.11-3.34-1.11-1.75,0-3.34.64-4.45,1.51-1.51,1.35-2.47,3.34-2.62,5.33v.64l-2.62,140.55,1.35,25.85,1.35,25.22c.24,3.74,3.34,6.84,7.08,6.84s6.84-3.1,6.84-6.84l3.1-51.07-3.1-141.19c-.32-2.39-1.59-4.61-3.58-5.73h0ZM237.03,173.31c-1.11-.64-2.23-1.11-3.5-1.11s-2.47.48-3.5,1.11c-1.75,1.11-2.86,3.1-2.86,5.33l-.24,1.35-2.23,127.91s0,.24,2.47,52.18v.24c0,1.35.48,2.62,1.35,3.74,1.35,1.51,3.1,2.47,5.09,2.47,1.75,0,3.34-.87,4.45-1.99,1.35-1.11,1.99-2.62,1.99-4.45l.24-5.33,2.47-46.61-2.62-129.5c-.24-2.23-1.35-4.22-3.1-5.33h0ZM148.42,191.21c-2.47,0-4.61,2.23-4.61,4.85l-3.5,111.84,3.5,53.45c.24,2.62,2.23,4.61,4.61,4.61,2.62,0,4.61-1.99,4.85-4.61l3.98-53.45-3.98-111.84c-.16-2.62-2.15-4.85-4.85-4.85h0ZM448.06,241.17c-8.59,0-16.78,1.75-24.34,4.85-5.09-56.32-52.34-100.54-110.01-100.54-14.16,0-27.84,2.62-40.01,7.48-4.85,1.75-6.2,3.5-6.2,7.32v198.62c0,3.98,3.1,6.84,6.84,7.32h173.64c34.44,0,62.52-27.84,62.52-62.28.08-34.68-28-62.76-62.44-62.76h0ZM212.05,193.2c-3.34,0-5.97,2.62-6.2,6.2l-2.62,108.74,2.62,52.18c.24,3.34,2.86,5.97,6.2,5.97s5.97-2.62,5.97-5.97l3.1-52.18-3.1-108.74c-.24-3.58-2.62-6.2-5.97-6.2h0ZM169.42,187c-2.62,0-5.09,2.47-5.09,5.33l-3.1,115.58,3.1,53.21c.24,2.86,2.47,5.09,5.09,5.09,2.86,0,5.09-2.23,5.33-5.09l3.5-53.21-3.5-115.58c-.24-2.86-2.47-5.33-5.33-5.33ZM190.65,189.7c-3.1,0-5.49,2.47-5.49,5.49l-3.1,112.71,3.1,52.82c.24,3.1,2.47,5.49,5.49,5.49s5.49-2.47,5.49-5.49l3.34-52.82-3.34-112.71c0-3.1-2.39-5.49-5.49-5.49h0Z"/>
</svg>