<?xml version="1.0" encoding="UTF-8"?>
<svg id="Layer_1" xmlns="http://www.w3.org/2000/svg" viewBox="0 0 512 512">
  <defs>
    <style>
      .cls-1 {
        fill: #fff;
      }
    </style>
  </defs>
  <path class="cls-1" d="M256,0C114.68,0,0,114.68,0,256s114.68,256,256,256,256-114.68,256-256S397.32,0,256,0ZM359.95,376.67c-4.34,0-7.02-1.34-11.05-3.72-64.41-38.81-139.35-40.46-213.37-25.29-4.03,1.03-9.29,2.68-12.28,2.68-10.01,0-16.31-7.95-16.31-16.31,0-10.63,6.3-15.69,14.04-17.34,84.54-18.68,170.94-17.03,244.65,27.05,6.3,4.03,10.01,7.64,10.01,17.03s-7.33,15.9-15.69,15.9h0ZM387.72,308.95c-5.37,0-8.98-2.37-12.7-4.34-64.52-38.19-160.72-53.57-246.3-30.35-4.95,1.34-7.64,2.68-12.28,2.68-11.05,0-20.03-8.98-20.03-20.03s5.37-18.37,16-21.37c28.7-8.05,58.01-14.04,100.95-14.04,66.99,0,131.72,16.62,182.71,46.97,8.36,4.95,11.66,11.35,11.66,20.34-.1,11.15-8.77,20.13-20.03,20.13ZM419.72,230.3c-5.37,0-8.67-1.34-13.32-4.03-73.5-43.87-204.9-54.4-289.96-30.66-3.72,1.03-8.36,2.68-13.32,2.68-13.63,0-24.05-10.63-24.05-24.36s8.67-21.99,17.96-24.67c36.34-10.63,77.01-15.69,121.29-15.69,75.35,0,154.32,15.69,212.03,49.34,8.05,4.65,13.32,11.05,13.32,23.33,0,14.04-11.35,24.05-23.95,24.05h0Z"/>
</svg>