<?xml version="1.0" encoding="UTF-8"?>
<svg id="Layer_1" xmlns="http://www.w3.org/2000/svg" viewBox="0 0 512 512">
  <defs>
    <style>
      .cls-1 {
        fill: #fff;
      }
    </style>
  </defs>
  <path class="cls-1" d="M502.93,50.46c-5.62-4.56-14.29-5.52-18.17-5.45-17.64.31-44.69,9.72-174.9,63.88-45.6,18.97-136.75,58.23-273.44,117.79-22.2,8.82-33.82,17.46-34.88,25.9-2.03,16.21,21.31,21.26,50.67,30.8,23.94,7.78,56.14,16.89,72.89,17.25,15.19.33,32.14-5.93,50.85-18.78,127.71-86.21,193.64-129.78,197.77-130.72,2.92-.66,6.96-1.48,9.71.95s2.47,7.05,2.18,8.29c-2.32,9.9-122.29,119.02-129.2,126.19-26.38,27.41-56.39,44.17-10.1,74.68,40.06,26.4,63.37,43.24,104.64,70.29,26.37,17.29,47.05,37.79,74.28,35.28,12.53-1.15,25.47-12.93,32.04-48.07,15.54-83.04,46.07-262.96,53.13-337.1.43-6.17.16-12.36-.79-18.47-.56-4.92-2.94-9.45-6.67-12.7Z"/>
</svg>