<?xml version="1.0" encoding="UTF-8"?>
<svg id="Layer_1" xmlns="http://www.w3.org/2000/svg" viewBox="0 0 512 512">
  <defs>
    <style>
      .cls-1 {
        fill: #fff;
      }
    </style>
  </defs>
  <path class="cls-1" d="M378.44,237.31c-2.2-1.06-4.44-2.07-6.71-3.05-3.95-72.77-43.71-114.43-110.48-114.86-.3,0-.6,0-.91,0-39.93,0-73.15,17.05-93.59,48.06l36.72,25.19c15.27-23.17,39.24-28.11,56.89-28.11.2,0,.41,0,.61,0,21.98.14,38.57,6.53,49.31,19,7.81,9.07,13.04,21.61,15.63,37.44-19.49-3.31-40.57-4.33-63.1-3.04-63.48,3.66-104.29,40.68-101.55,92.12,1.39,26.09,14.39,48.54,36.6,63.21,18.78,12.4,42.97,18.46,68.11,17.09,33.2-1.82,59.24-14.49,77.41-37.65,13.8-17.59,22.53-40.38,26.38-69.1,15.82,9.55,27.55,22.11,34.02,37.22,11.01,25.68,11.65,67.87-22.77,102.27-30.16,30.13-66.42,43.17-121.22,43.57-60.78-.45-106.75-19.94-136.64-57.94-27.99-35.58-42.45-86.97-42.99-152.74.54-65.77,15-117.16,42.99-152.74,29.89-37.99,75.86-57.49,136.64-57.94,61.22.46,108,20.04,139.03,58.22,15.22,18.72,26.69,42.27,34.25,69.72l43.03-11.48c-9.17-33.79-23.59-62.91-43.22-87.06C393.09,25.77,334.91.69,259.94.17h-.3C184.82.69,127.29,25.87,88.64,75c-34.39,43.72-52.13,104.56-52.73,180.82v.18s0,.18,0,.18c.6,76.26,18.34,137.1,52.73,180.82,38.65,49.13,96.18,74.31,171,74.83h.3c66.52-.46,113.4-17.88,152.03-56.47,50.53-50.49,49.01-113.77,32.36-152.62-11.95-27.86-34.73-50.49-65.88-65.43ZM263.59,345.29c-27.82,1.57-56.72-10.92-58.15-37.67-1.06-19.83,14.11-41.96,59.86-44.6,5.24-.3,10.38-.45,15.43-.45,16.62,0,32.16,1.61,46.29,4.7-5.27,65.83-36.19,76.52-63.43,78.01Z"/>
</svg>