<?xml version="1.0" encoding="UTF-8"?>
<svg id="Layer_1" xmlns="http://www.w3.org/2000/svg" viewBox="0 0 512 512">
  <defs>
    <style>
      .cls-1 {
        fill: #fff;
      }
    </style>
  </defs>
  <path class="cls-1" d="M479.99,209.96c-44.04.11-86.99-13.63-122.8-39.26v178.77c-.03,89.8-72.85,162.56-162.65,162.53-89.8-.03-162.56-72.85-162.53-162.65.03-89.8,72.85-162.56,162.65-162.53,7.45,0,14.89.52,22.27,1.54v89.91c-39.32-12.37-81.23,9.48-93.6,48.8-12.37,39.32,9.48,81.23,48.8,93.6s81.23-9.48,93.6-48.8c2.28-7.25,3.44-14.8,3.44-22.4V0h88.02c-.06,7.43.56,14.86,1.86,22.18h0c6.18,33.02,25.68,62.04,53.92,80.24,19.88,13.14,43.19,20.15,67.02,20.15v87.4Z"/>
</svg>