<?xml version="1.0" encoding="UTF-8"?>
<svg id="Layer_1" xmlns="http://www.w3.org/2000/svg" viewBox="0 0 512 512">
  <defs>
    <style>
      .cls-1 {
        fill: #fff;
      }
    </style>
  </defs>
  <path class="cls-1" d="M470.15,187.38l41.85-45.53h-92.8c-46.46-31.73-102.56-50.22-163.24-50.22s-116.55,18.52-162.93,50.22H0l41.85,45.53C16.2,210.78.12,244.49.12,281.92c0,70.64,57.27,127.9,127.9,127.9,33.55,0,64.13-12.94,86.95-34.1l40.99,44.64,40.99-44.6c22.82,21.16,53.35,34.06,86.91,34.06,70.64,0,127.98-57.27,127.98-127.9.04-37.47-16.04-71.18-41.69-94.54ZM128.06,368.48c-47.81,0-86.56-38.75-86.56-86.56s38.75-86.56,86.56-86.56,86.56,38.75,86.56,86.56-38.75,86.56-86.56,86.56ZM256,279.4c0-56.96-41.42-105.86-96.09-126.74,29.56-12.36,61.99-19.22,96.05-19.22s66.53,6.86,96.09,19.22c-54.63,20.92-96.05,69.78-96.05,126.74ZM383.9,368.48c-47.81,0-86.56-38.75-86.56-86.56s38.75-86.56,86.56-86.56,86.56,38.75,86.56,86.56-38.75,86.56-86.56,86.56ZM383.9,236.51c-25.07,0-45.37,20.3-45.37,45.37s20.3,45.37,45.37,45.37,45.37-20.3,45.37-45.37c0-25.03-20.3-45.37-45.37-45.37ZM173.43,281.92c0,25.07-20.3,45.37-45.37,45.37s-45.37-20.3-45.37-45.37,20.3-45.37,45.37-45.37c25.07-.04,45.37,20.3,45.37,45.37Z"/>
</svg>