<?xml version="1.0" encoding="UTF-8"?>
<svg id="Layer_1" xmlns="http://www.w3.org/2000/svg" viewBox="0 0 512 512">
  <defs>
    <style>
      .cls-1 {
        fill: #fff;
      }
    </style>
  </defs>
  <path class="cls-1" d="M507.8,133.92c-8.64-1.87-17.37-3.33-26.09-4.77-5.52-.91-11.11-1.46-16.65-2.23-8.81-1.23-17.61-2.58-26.43-3.78-7.31-.99-14.66-1.75-21.96-2.78-7.04-.99-14.04-2.28-21.07-3.3-9.78-1.41-19.58-2.68-29.37-4.04-3.56-.49-6.5-1.92-8.12-5.4-.51-1.1-1.33-2.06-1.96-3.12-2.18-3.64-4.33-7.3-6.49-10.95-3.4-8.11-6.81-16.21-10.21-24.32-4.49-10.7-8.83-21.46-13.53-32.07-2.35-5.29-4.27-10.95-10.01-14.04-5.85-3.15-11.86-3.05-18.01-1.65-16.5,3.75-31.15,11.81-45.66,20.05-21.95,12.48-42.6,26.87-61.92,43.16-1.06.9-2.5,2.19-3.61,2.06-6.63-.78-13.22-1.96-19.84-2.92-5.52-.8-11.06-1.47-16.59-2.2-6.08-.95-12.15-1.96-18.23-2.85-7.51-1.1-15.03-2.11-22.55-3.14-5.56-.76-11.13-1.47-16.7-2.2-6.21-.82-12.42-1.63-18.63-2.47-7.07-.96-14.12-2.01-21.2-2.92-7.75-.99-15.51-1.98-23.29-2.77-7.48-.75-14.98-1.39-22.48-1.78-3.78-.19-6.59,2.38-7.06,6.12-.26,2.07-.09,4.24.21,6.32.95,6.52,2.09,13.02,3.09,19.53,1.05,6.83,1.99,13.68,3.04,20.51.96,6.29,2.03,12.56,3,18.85,1.02,6.61,1.94,13.24,2.96,19.85.97,6.3,1.99,12.59,3.04,18.87,1.04,6.24,2.13,12.47,3.2,18.71.1,1.44.07,2.9.31,4.32,1.26,7.55,2.54,15.09,3.9,22.62,2.13,11.76,4.17,23.54,6.55,35.25,1.21,5.99,5.89,10.52,13.09,10.24,7.1-.28,14.2-.5,21.31-.69,9.35-.26,18.69-.45,28.04-.71,1.2-.03,2.4-.39,3.61-.4,4.82-.05,9.64-.02,14.05-.02v29.98c.39,6.5.6,13.02,1.22,19.5.73,7.67,1.26,15.41,2.84,22.92,3.56,16.94,8.31,33.52,15.66,49.33,12.63,27.15,30.54,49.93,54.59,67.82,9.99,6.3,19.78,12.97,30.04,18.8,9.89,5.62,20.6,9.45,31.55,12.78,13.24,4.02,26.74,6.29,40.44,7.27,7.18.51,14.45-.19,21.67-.52,10.52-.48,20.73-2.74,30.75-5.83,23.58-7.28,44.13-19.37,61.13-37.55,12.32-13.17,20.66-28.4,25.63-45.52,3.88-13.39,3.91-27.18,2.19-40.89-1.38-11-5.24-21.36-10.82-30.94-6.65-11.42-15.9-20.31-27.9-25.93-14-6.56-28.93-8.2-44.02-5.67-20.08,3.37-35.16,13.73-42.36,33.61-5.09,14.04-4.15,27.58,4.55,39.94,5.57,7.91,13.14,13.17,23.37,12.71,5.05-.23,9.82-1.93,11.66-7.22,1.63-4.69-.21-8.14-4.26-11.45-8.42-6.87-9.92-17.34.51-23.92,4.46-2.81,9.32-2.35,14.16-2.32,6.62.03,12,2.91,16.05,7.97,7.67,9.59,8.9,20.68,6.45,32.27-2.27,10.75-7.8,19.66-16.7,26.23-17.39,12.82-36.5,15.01-56.22,7.08-15.74-6.33-27.47-17.68-34.65-33.34-.67-2.07-1.37-4.12-2-6.2-3.96-12.93-6.31-25.95-4.83-39.66,1.24-11.44,3.89-22.41,8.96-32.59,6.32-12.69,15.22-23.58,26.21-32.59,10.06-8.25,22.02-12.51,34.57-14.91,8.75-1.67,17.67-2.48,26.54-3.44,9.55-1.03,19.12-1.89,28.7-2.61,6.09-.46,12.21-.49,18.32-.77,3.54-.16,7.08-.44,10.62-.67,10.5-.67,21.01-1.32,31.51-2.02,5.96-.4,11.94-.64,17.86-1.39,5.98-.75,10.54-3.61,12.78-9.7,4.61-12.53,9.42-25,14.22-37.46,6.97-18.07,14.04-36.11,21.02-54.19,1.35-3.51-.07-7.08-3.7-7.86Z"/>
</svg>