<?xml version="1.0" encoding="UTF-8"?>
<svg id="Layer_1" xmlns="http://www.w3.org/2000/svg" viewBox="0 0 512 512">
  <defs>
    <style>
      .cls-1 {
        fill: #fff;
      }
    </style>
  </defs>
  <path class="cls-1" d="M510.76,133.46c-2.28,51.27-36.88,121.47-104.05,210.6-69.33,93.13-127.95,139.69-175.99,139.69-29.71,0-54.87-28.34-75.47-85.02-40.07-151.92-57.15-240.94-90.27-240.94-3.87,0-17.19,8.35-40.07,24.81L1,150.63C59.74,97.36,115.86,38.1,151.04,34.81c39.73-4,64.09,24.11,73.31,84.08,32.67,213.42,47.13,245.64,106.55,148.98,21.29-34.81,32.79-61.26,34.38-79.49,5.46-53.97-40.75-50.33-72.06-36.45,25.04-84.78,72.97-125.94,143.66-123.59,52.14,1.41,76.84,36.57,73.88,105.12h0Z"/>
</svg>