<?xml version="1.0" encoding="UTF-8"?>
<svg id="Layer_1" xmlns="http://www.w3.org/2000/svg" viewBox="0 0 512 512">
  <defs>
    <style>
      .cls-1 {
        fill: #fff;
      }
    </style>
  </defs>
  <path class="cls-1" d="M206.27,96.26v221.3c-51.17-12.79-115.77-74.83-118.65-221.3H0c4.16,199.56,103.94,319.48,278.87,319.48h9.91v-114.17c30.86,3.87,59.89,16.78,83.44,37.09,23.56,20.31,40.59,47.13,48.96,77.08h90.82c-9.33-34.49-25.86-66.6-48.52-94.22-22.66-27.62-50.92-50.11-82.92-66,28.66-17.4,53.42-40.52,72.73-67.93,19.31-27.4,32.77-58.5,39.52-91.34h-82.51c-17.91,63.32-71,120.88-121.52,126.32v-126.32h-82.51Z"/>
</svg>