<?xml version="1.0" encoding="UTF-8"?>
<svg id="Dimensions" xmlns="http://www.w3.org/2000/svg" viewBox="0 0 512 512">
  <defs>
    <style>
      .cls-1 {
        fill: #fff;
        fill-rule: evenodd;
      }
    </style>
  </defs>
  <path class="cls-1" d="M260.62,0C122.87,0,11.2,111.66,11.2,249.41c0,47.12,13.08,91.18,35.79,128.78L1.98,512l138.09-44.21c35.73,19.76,76.82,31.02,120.55,31.02,137.74,0,249.41-111.66,249.41-249.4,0-137.75-111.67-249.41-249.41-249.41ZM260.62,459.09c-42.6,0-82.25-12.78-115.37-34.68l-80.58,25.81,26.19-77.87c-25.1-34.57-39.93-77.05-39.93-122.94,0-115.62,94.07-209.69,209.69-209.69s209.69,94.06,209.69,209.69-94.07,209.68-209.69,209.68Z"/>
  <path class="cls-1" d="M202.12,146.25c-4.04-9.74-7.13-10.07-13.38-10.36-2.14-.1-4.46-.2-7-.2-8.04,0-16.38,2.37-21.4,7.51-6.11,6.25-21.4,20.9-21.4,50.98s21.91,59.15,24.96,63.23c3.06,4.08,42.73,66.71,104.45,92.28,48.17,19.95,62.47,18.18,73.46,15.77,15.99-3.49,36.07-15.27,41.17-29.54,5.09-14.28,5.09-26.52,3.57-29.06-1.53-2.55-5.61-4.08-11.72-7.14-6.11-3.06-36.18-17.85-41.78-19.88-5.61-2.04-10.79-1.42-15.1,4.55-5.95,8.23-11.67,16.7-16.41,21.71-3.72,3.94-9.7,4.49-14.85,2.3-6.77-2.88-25.81-9.52-49.17-30.34-18.17-16.2-30.44-36.21-34.01-42.34-3.57-6.11-.31-9.76,2.43-13.09,3.13-3.8,6.03-6.52,9.08-10.09,3.06-3.57,4.76-5.47,6.8-9.56,2.04-4.08.67-8.28-.86-11.34-1.53-3.06-13.77-33.14-18.85-45.38Z"/>
</svg>