<?xml version="1.0" encoding="UTF-8"?>
<svg id="Layer_1" xmlns="http://www.w3.org/2000/svg" viewBox="0 0 512 512">
  <defs>
    <style>
      .cls-1, .cls-2 {
        fill: #fff;
      }

      .cls-2 {
        fill-rule: evenodd;
      }
    </style>
  </defs>
  <path class="cls-1" d="M395.43,93.21c-.92-.23-1.85-.45-2.77-.68.92.23,1.85.45,2.77.68Z"/>
  <path class="cls-1" d="M424.44,105.24c-.21-.93-.43-1.86-.64-2.79.21.93.43,1.86.64,2.79Z"/>
  <path class="cls-1" d="M426.33,127.99c-.24-.93-.47-1.85-.71-2.78.24.93.47,1.85.71,2.78Z"/>
  <path class="cls-1" d="M425.63,159.5c.25-.72.5-1.44.75-2.16-.25.72-.5,1.44-.75,2.16Z"/>
  <path class="cls-1" d="M156.75,333.63c-.15-.75-.3-1.5-.45-2.24.15.75.3,1.5.45,2.24Z"/>
  <path class="cls-1" d="M412.45,103.96c-.2,0-.39,0-.59,0,.2-.09.4-.09.59,0Z"/>
  <g>
    <path class="cls-2" d="M0,456.1h511.97v-52.57H0"/>
    <path class="cls-2" d="M451.37,181.69c-.47-34.66-16.29-72.67-59.84-72.67s-59.37,38.01-59.86,72.67c.49,34.66,16.32,72.67,59.89,72.67s59.4-38.01,59.86-72.67h-.05ZM275.79,61.52h57.75v20.43h.96c17.55-16.12,42.83-26.05,71.24-26.05,60.6,0,106.26,56.49,106.26,125.79,0,63.81-37.49,125.87-112.98,125.87-30.22,0-54.73-10.69-65.46-23.86v95.05h-57.78V61.52ZM167.8,323.24c-15.63,44.07-36.31,58.41-77.93,58.41-14.26,0-28.44-2.82-41.13-7.95v-51.75c9.05,3.7,22.76,7.4,36.53,7.4,18.48,0,26.27-9.38,26.27-21.39,0-4.72-1.7-9.6-5.48-19.28-3.73-9.71-88.74-227.19-88.74-227.19h63.02l61.43,182.58h.74l54.46-182.58h60.33l-89.51,261.72.03.03Z"/>
  </g>
</svg>