<?xml version="1.0" encoding="UTF-8"?>
<svg id="Layer_1" xmlns="http://www.w3.org/2000/svg" viewBox="0 0 512 512">
  <defs>
    <style>
      .cls-1 {
        fill: #fff;
      }
    </style>
  </defs>
  <path class="cls-1" d="M501.3,132.33c-5.89-22.17-23.24-39.63-45.27-45.56-39.93-10.77-200.04-10.77-200.04-10.77,0,0-160.11,0-200.04,10.77-22.03,5.93-39.38,23.39-45.27,45.56C0,172.52,0,256.36,0,256.36c0,0,0,83.85,10.7,124.04,5.89,22.17,23.24,38.91,45.27,44.83,39.93,10.77,200.04,10.77,200.04,10.77,0,0,160.11,0,200.04-10.77,22.03-5.93,39.38-22.66,45.27-44.83,10.7-40.19,10.7-124.04,10.7-124.04,0,0,0-83.85-10.7-124.04ZM203.64,332.49v-152.26l133.82,76.13-133.82,76.13h0Z"/>
</svg>